/* XPM */
static char *d03a76db84384125942200bb3545cb200w6aOqo3ovxxlsnx[] = {
/* columns rows colors chars-per-pixel */
"64 64 153 2 ",
"   c #020202",
".  c #0B0B0B",
"X  c #100F0F",
"o  c #141413",
"O  c #1C1C1C",
"+  c #20201F",
"@  c #232323",
"#  c #282727",
"$  c #282827",
"%  c #2C2B2B",
"&  c #302F2F",
"*  c #343434",
"=  c #383737",
"-  c #383837",
";  c #3C3B3B",
":  c #403F3F",
">  c #40403F",
",  c #434343",
"<  c #484747",
"1  c #484847",
"2  c #4C4C4B",
"3  c #504F4F",
"4  c #535353",
"5  c #585757",
"6  c #585857",
"7  c #5C5B5B",
"8  c #605F5F",
"9  c #60605F",
"0  c #666565",
"q  c #666564",
"w  c #666665",
"e  c #676665",
"r  c gray40",
"t  c #676666",
"y  c #676766",
"u  c #676767",
"i  c #656464",
"p  c #646363",
"a  c #686766",
"s  c #686767",
"d  c #686767",
"f  c #686867",
"g  c #696867",
"h  c #686867",
"j  c #686868",
"k  c #696868",
"l  c #696968",
"z  c DimGray",
"x  c #6A6969",
"c  c #6A6A69",
"v  c #6B6A69",
"b  c #6A6A6A",
"n  c #6B6A6A",
"m  c #6B6B6A",
"M  c #6C6B6A",
"N  c #6C6B6B",
"B  c #6C6C6B",
"V  c #6D6C6B",
"C  c #6C6C6C",
"Z  c #6D6C6C",
"A  c #6D6D6C",
"S  c #6D6D6D",
"D  c #6E6D6C",
"F  c #6E6D6D",
"G  c #6E6E6D",
"H  c gray43",
"J  c #6F6E6E",
"K  c #6F6F6E",
"L  c #6F6F6F",
"P  c #6D6C6C",
"I  c #706F6E",
"U  c #706F6F",
"Y  c #706F6F",
"T  c #70706F",
"R  c #70706F",
"E  c #717070",
"W  c #717170",
"Q  c #717171",
"!  c #727170",
"~  c #727171",
"^  c #727271",
"/  c #737271",
"(  c #727272",
")  c #737272",
"_  c #737372",
"`  c gray45",
"'  c #747373",
"]  c #747473",
"[  c #747474",
"{  c #757474",
"}  c #757574",
"|  c gray46",
" . c #767675",
".. c #777675",
"X. c #767676",
"o. c #777676",
"O. c #777776",
"+. c #737373",
"@. c #787777",
"#. c #797777",
"$. c #787777",
"%. c #787877",
"&. c gray47",
"*. c #797878",
"=. c #7A7978",
"-. c #7A7979",
";. c #7B7A79",
":. c gray48",
">. c #7B7A7A",
",. c #7B7B7A",
"<. c #7C7C7B",
"1. c #7D7C7C",
"2. c #7E7D7D",
"3. c #7F7E7D",
"4. c #7F7E7E",
"5. c #7F7F7E",
"6. c gray50",
"7. c #7B7B7A",
"8. c #807F7F",
"9. c #807F7E",
"0. c #80807F",
"q. c #81807F",
"w. c #80807F",
"e. c #818080",
"r. c #818180",
"t. c #818181",
"y. c #828181",
"u. c #838282",
"i. c #848282",
"p. c #848383",
"a. c #868585",
"s. c #868685",
"d. c #868686",
"f. c #878686",
"g. c #838382",
"h. c #888787",
"j. c #888787",
"k. c #888887",
"l. c #888887",
"z. c #898888",
"x. c #898988",
"c. c #898989",
"v. c #8A8989",
"b. c #8B8A8A",
"n. c #8C8C8B",
"m. c #8D8D8C",
"M. c #8F8E8D",
"N. c #8B8B8A",
"B. c #908F8F",
"V. c #91908F",
"C. c #939291",
"Z. c #949393",
"A. c #989796",
/* pixels */
"O O O @ * , * 1 ; : 1 1 2 , 6 2 4 4 4 6 6 - $ $ * * $ * * $ * * % * ; - 2 4 w w p c 6 4 1 * - 1 % $ O . o o O @ % * - % $ @ O O ",
"<.:.W { :.W c , 4 6 4 4 c N F @.:.:.:.q.p.p.:.p.r.r.2.:.@.h.8.r.r.:.4 , 1 1 2 c p 7 4 6 7 5 p p 6 6 6 p 1 { c w w 7 7 7 ' :.W W ",
"c w F { W ' W 3 4 4 W F W F F F 7 p F W W p ' F B w F U { F W F c f c ; , , p z.z.z.q.:.{ W { W { { :.2.2.r.2.F 1 , 4 p F 9 w c ",
"p p c c B B p 2 - 1 c c p c c 7 N p B F F B F W c p c c W F c F F s F $ % 1 F c F N W W p N c c U F P P w F { 8 6 7 , 4 p p w 7 ",
"7 7 p p c w 7 - 2 1 w c w p w c 7 w 6 N F c p w w w B F w F c s N c w ; @ * p F c p w p c w c c { F U 7 w f 8 4 1 4 4 1 p 7 w F ",
"w B W c F F p # ; 4 { W w p F F c p c 9 F ' N N p 6 F 8 N W c p c p p @ O * 6 s F W W W W F W c F W c s 6 p 4 $ , , , 4 p 7 w F ",
"B w 9 c U W f @ 2 3 c W W W w c F F c W F N F T s w w c 7 W w w w c w * o $ 4 N w F W W N c N F c p c F s w 2 * . * 1 6 W W F B ",
"F 8 f U F N 8 6 4 6 N W W B W { c f c w F { F w p p p 7 F c w w F F w - * * 2 c W f F W W F c W F p 7 F W w 1 % , $ 1 w F w F p ",
"W p F p f F w 7 F p U W F W c F w c w T F { W c F c w w p p c W w c w - 4 , 1 w c B w W W W W W B F c F 8 7 , , 4 @ $ 7 c d F W ",
"W W W T F c c 2 , p W F W F p c U p c W { W { W F F F c c w f W w U 2 7 w , ; 6 c w F F ] W ' F :.{ W p N 7 - 1 * @ O 4 F F c F ",
"c W { W c s 1 2 4 7 U W T p s N s N W W { { B c 6 p p 4 , c c p U W 2 f w 6 o $ ; 7 F F F W W W W { U 4 % .   p p F 6 1 F f c w ",
"o . o @ O O . w , . @ , 2 1 - % * 4 2 1 @ .         @ 4 - w 1 @ ; * o w c 7 @       . % 2 p p p 4 % o       * % * 2 7 .   .     ",
"            O 7 4 .                                                 @ 1 1 - $ .                           . ; ; c - ; .         ",
", @ - * - 4 7 2 6 p ; O . o * 6 2 @ O o $ $ , - , % , $ . @ * @ % 1 1 % , $ o 2 4 4 , o         . . o O   o O 6 4 7 @ 2 ; ; - 1 ",
"* 4 , 4 7 2 4 1 6 r.C.M.z.d.r.d.M.r.4 2 - 2 , 1 c c 7 , W @.W 2.:.F { z.d.2.2.q.8.d.n.k.2.:.7 * , 2 , o % - ; 7 w { { p.r.c w 2 ",
"2 - , ; 1 z.C.z.h.2.B W W { { :.:.r.r.r.2.2.p.] , 4 4 W :.F W :.{ { { W ' W ' { @.{ U W { { :.{ 6 4 4 ' F 6 W <.8.r.:.F F F c { ",
":.p - * 4 p.@.T W W F N F F U U %.W { { W { W :.4 % , 4 W F N W c W { W W @.{ W F W U F F w N w 1 4 c 9 w 6 7 p 7 U p c W s w T ",
"4 2 ; , p ' c F W N F W W T W ' { w T %.' W F W p * 4 2 U w p U s W W F W U { { W N F c W { F F 2 7 6 w s w 8 w 6 7 F c W w s W ",
"6 @ 1 4 F W { W :.{ { W W T { { U W F W W W U c W 6 4 , c w w W { U U F W ] { { U { U T c N W F - , 4 f c w p c 4 s W W w c c w ",
"p * @ , F ' W ' W %.{ W W F { W W W :.W { W W F c 7 w * ' ' F W { ] U W W W W F U U c W W c W s ; * % p c c c p F c N W W w c @.",
"2 $ $ % ` { W ' W { F { c F W { :.:.' F { F s F c w W 1 W { :.{ U { W W ' { W W F W F c { W ] { , , - F 8 c U c 7 W F T W { ' W ",
"% = = @ 4 W U ' U W W W { W F { W @.@.{ W W F T { , p , F U W { { c c W F W W W W { { W T N F p 6 6 , 2 F w p W W 9 7 7 c F W N ",
"  % * - - W { ] { ' W F F W W F W W F w w c F c w - 4 , w U F T F T W W { { W ' { F F W ' ] F 2 @ 6 2 4 w w 7 7 F T N B F s w 7 ",
"@ 4 2 1 o $ , , < 6 7 * $ O O O @ % * - * $ O O . @ , * o $ % @ * ; 6 f c c F U W U W W F c p O o 1 2 O * & ; > 7 p w f 8 1 - . ",
"; 2 4 1 $                                         ; % 2 o             . o o O @ $ = 1 4 - O .   - 1 ;             . . .         ",
"2 , 2 , * % O O o O o @ @ o . o o o @ $ * , , * * p p 4 W , ; ; * O .                         @ 2 - $ @ @ @ o               o - ",
", , * ; 4 4 1 , , , , 1 ; % * ; , d.r.r.r.r.2.2.r.2.<.d.r.2.2.8.r.p.q.:.W 4 * . $ % O o @ , 4 c w 4 4 2 2 , @ * 2 , * , , ; p 2 ",
"r.d.z.d.k.d.d.r.r.<.U 4 2 7 4 , W { @.{ { ' W F W W { W W F W W W { %.:.r.z.M.p.@ ; % - 6 7 p 2 :.2.{ 2.F f p 7 w 6 - 2 9 c W 2.",
"{ { { :.{ { %.:.%.:.:.:.4 , , , F ] W F F W W W U N c F F F c w F F W F W %.:.r.; * ; p 4 2 * c W { ] F T { W p s F <.{ :.2.2.:.",
"W :.2.<.{ { { { { W W U 6 O o o U T c U F N c F F F f F c c c c c W F N W W W W 2 * 1 6 7 2 p.:.F F c p p w c F c p p F W U W { ",
"W { @.:.:.{ { @.:.{ W ' ; $ , 6 F W B W W F F F c F W c U F B W { W W { W W ' { { 6 w 4 4 r.r.W c F W F c s F c ] W W W W W W W ",
"W W ] W W ' W W { { W F @ 1 6 4 w c U s F f F F f F W F F W W N { { W ` F U W W s < 4 1 c :.F W W F F U W T T F W { { { { F F c ",
"{ ] { { { ' ] W ' %.@.w * 7 - , s c c F p w N F c c U W { W { ] F W W W { W W W * 4 7 4 U F U W F c B c c c F F W { @.U W ] w F ",
"F T { { { W U W W ' W 6 ; 1 - * { W U W N N T c N c F U F { { W { { W W F F :.c o * % 2 U @.{ W c p F @.p F c c F W W W W W W c ",
"{ { ' :.' { { W W W { w 4 1 , 1 W ] W W c c c W c w c W W W W { ] { @.:.{ { 6 o * w , 3 w c W W F N F F 7 p F p w N F F ] { T c ",
"' { ' W F W W ] W W W p * * 4 , F W U W { s F { ] W T U W { ] { W W ] W W c   o 6 4 @ 2 T U c F F F w 7 w w c w c F B c N W W W ",
"{ :.{ W { W F p 4 , , * 1 6 p 2 p F T { F F c W ] F N c W U U W { W T W W w . o O @ $ * c p N F w F w p c w c 4 6 7 p w w p W { ",
", * * % @ O           . 4 w u p * s F W U W F F F F W ] w W F c F N c w 6 @ * , ; * o . o * $ $ * * * @ % ; * 1 , $ O o o $ - 2 ",
"              . o O O * 7 p : 1 . $ < , * % $ O @ ; - 1 1 , * * @ .       . 2 1 4 , 4 @                                         ",
"* * ; * , $ 4 w c W 7 4 p 4 F 6 2                                     . . * 1 1 - , , 2 * @ @ @ * * * * @ @ o O O $ % . O , % @ ",
"B.Z.Z.Z.C.Z.Z.V.z.d.{ c 6 6 4 c c 7 , , , 6 7 4 - O O O O @ $ * * 4 W r.z.Z.V.C.M.n.r.z.r.{ w 2 2 1 4 4 p.:.4 - - * o O p 7 w F ",
"r.2.2.r.r.d.z.h.r.d.z.p.6 { w p p 8.A.M.d.2.:.:.2.8.z.c ; O , < d.Z.M.z.r.2.:.:.r.:.2.8.2.2.q.2.:., B d.F W r.%.O O % w 6 w p.B.",
"W B U { { :.2.r.z.d.q.2.L c { w 6 { { 2.W W F { ' { W W , 2 @ 6 { :.r.:.:.W W ' W U W %.F c W p W :.:.W N c 6 T , O , 4 7 2 F N ",
"U W W { :.{ { { :.d.p.:.6 , , 4 7 ' P F ] { W W F F F F = < * w :.W { U W W W w W F F ' { T F p 5 w F F w F U c 7 , - 2 - * F c ",
"' @.:.:.2.<.:.:.:.2.d.:.p 1 . o 4 W :.{ N F { W F N U ' 1 4 7 4 F N F p c 6 F { { { s W ] W U F ' p w 7 U ' U W p , *   4 p F F ",
"{ { { { W :.@.W 2.<.r.<.p 1 w 6 6 %.F W W { { ' f c w { * $ * , p T c w ] F p N @.w p W W F c W 7 w w c p W { W 6 6 1 % @ 7 p F ",
"{ W W U F U W @.{ { 2.2.6 7 * - 4 W { W F T T c p F { F 1 8 w @ s w W W { @.W F U { { s 7 c 7 p 6 4 p W p U w 4 4 7 2 , - c ' F ",
"W { W { { { { :.%.:.:.2.6 2 1 1 2 W w F f F c 7 c p N c 4 w p O 1 p F { { W { F W F c c w w 6 w <.F W w p W 2 p , . , 4 o w ' { ",
"' W W { W { ] { W W F :.6 2 4 4 2 2.{ { T F { p F c T W w p 2 O   - 6 p T c p F c c U F T p 4 p F { W w p ; 4 O o . , * 1 7 { { ",
":.] { F W F c p c c U B ; 4 F p 4 W U F ' U N F p 8 p T { 4 4 4 .     . o X . % % , 6 8 c p 6 * $ , 4 @           % * % , 1 c W ",
"7 1 . . $ $ O . . . o o o 1 4 4 $ W { F p * # + O % 6 F p 1 , 1 , .                 . o @ .               o - o % - 4 p 5 $ o @ ",
"                        O * ; o   . o o               O O 1 2 4 1 4 , * - , 4 ; O             . O     $ 4 6 ; 2 - $ - * , .     ",
"  O 4 ; o . $ $ $ 2 6 2 2 % @ * %       . O o $ $ O       1 4 4 $ * w F 1 6 7 w p 4 , ; ; , * 2 F 6 ; , 1 2 W F 2 w s F 5 , * O ",
"r.z.M.Z.C.M.d.2.q.:.d.n.h.r.c 2 4 2 p F :.<.:.r.2.:.:.W W r.r.F F { { ' :.:.T 2.2.{ 7 1 4 4 4 * - 7 2.r.2.{ { :.:.' :.2.1.2.z.z.",
"2.:.2.r.q.@.{ { T F W W :.r.d.:.1 - p U c W ' ] W F { :.%.@.' N w T F U U F W U :.:.F 4 1 - , 2 6 z.<.T ] ' W { @.W { W T L ' :.",
"W c ' { { { { { F N c W { p.d.d.4 ; , c c w 7 F F U T F c w w p 8 N W { c U F F F :.$.6 4 6 4 4 w { W U p W F { W F W T w s W W ",
"F F W W { { :.W T W { F N W 2.2.c , O 1 s p w c W { F c c F c B c F W U F c N f p W 2.F ; 6 2 p p w c B p W W W W p F U W { W W ",
"T c p F W W W ' F W W ' ' ' W { F p 4 . p p c w F W F F s c p c W W { F N p w N F W ] :., 4 2 p w p w w W W W U W U W F F W { { ",
"{ B W { { W ] %.{ %.{ W F W F c { , 6 o 2 c p F w W F W F U W U F F F L c W F F F W F F 1 ; 2 p 7 p w c F @.{ c p B W c c { { { ",
"W W W { @.:.:.{ :.' W W W w w W c 1 ; % ; c c f { ' W W U W W w F F F s w f F w F F c w $ * ; w p F w s W ' T c p w c F s F W ' ",
"{ { { { { ' { :.' W U W { F s N B 4 c c 7 { W F F W @.W ] ] { W F F F W U s F c B U F w * , 1 7 p w F W W W W W W T T W U W W { ",
"F F F W { { { { { W W F T c w w s ; w 6 w { W c { W F F T F W B F F U F W F s c F U F p ; p 5 p 6 p s N F W c c F F W W F W W W ",
"B W U F P ' { W W { U N F p c p - , < 6 4 F c p w p 8 c s c c F c c s F N f w w c w p * 6 4 $ 2 9 p B { c c w F f w N ' T W W W ",
"% % $ % % * ; , ; % $ O o o       ; 4 4 . % @ % . . O O O O O O o O @ @ O . . . . .     4 7 , o % @ @ O % ; 4 4 4 2 2 : - * , ; "
};
