/* XPM */
static char *_26bdcba732d4cf780e6b6ff795b4891oD9b0ANYi06TrsOJ[] = {
/* columns rows colors chars-per-pixel */
"64 64 15 1 ",
"  c #BF320E",
". c #BF330F",
"X c #BF3410",
"o c #BF3511",
"O c #BD4826",
"+ c #BD4927",
"@ c #BD4A28",
"# c #BD4B29",
"$ c #BD5331",
"% c #BD5533",
"& c #BD5634",
"* c #BB6949",
"= c #BB6A4A",
"- c #BB6B4B",
"; c #BB6C4C",
/* pixels */
";;;;;;;;;;;;;;;;;;;;;;;;;;;;;;;;;;;;;;;;;;;;;;;;;;;;;;;;;;;;;;;;",
";;#ooooo&;#oooooooooooooooooooooooooooooooo&#oooooooooooooooooo&",
";;+     %;+                                %+                  %",
";;+     %;+                                %+                  %",
";#      %;+                               $=+                  %",
";+      %;+                               %;+                  %",
";+      %;+                               %;+                  %",
";+      %;+                   $=+         %;=+                 %",
";+      %;+                   oo          %;;+              $+ %",
";========;=================================;;===================",
"o&;;;;;;;#&;;#&;;;;;;;;;;;;;;;;;;;;;;;;;;;;;;;;;;;;;;;;;;;;;;#o&",
" ooo&;#oo o&;+oooooooooooooo&;#oooooooooooooooooooooooo&;#ooo  o",
"    oo   $==#               %#                         o&+      ",
"        $#o&+ $+       $+   %+                          %+      ",
"        o  o  o        o   $=+                          %+      ",
"                           o&+                         $=+      ",
"                           $=+                         %;+      ",
" $======+ $+               o&==+      $===+            %;+      ",
"==;;;;;;=====================;;========;;;==============;=======",
";;;#oo&;;#ooo&;;;;;;#&;;;;;;;;;;;;;;;#ooooooooooooooooo&#ooo&;;;",
"ooo   ooo    ooooooo oooooo&;#ooooooo                  o    oo&;",
"                           %;+                                %#",
"                           %;+                                %+",
"          $+               %;+                                %+",
"          o          $+$====;===+    $+$========+            $=+",
"========================;;;;;;;;========;;;;;;;;==============;=",
";;;;;;;;;;;;;;;;;;;;;;;#&;;;;;;;;;;;;;#&;;;;;;;;;#o&;;;#&;;;;;;;",
"oooooooo&;;;;;#&#&;#o&;+oooooooooo&#oo oooooooooo  oooo oooooooo",
"        o&;#oo o oo  oo          $==+                           ",
"         %;+      $=+    $+      o&#                            ",
"         %;+      o&+    o $+    $==+                           ",
"         %;+       o       o     %;;+                           ",
"         %;+                     o&;+                           ",
"         %#                       %;+                           ",
"         %=+                $+ $+$=;==+$=================+      ",
" $==+ $=+%;=======================;;;;==;;;;;;;;;;;;;;;;;=======",
"==;;===;==;;;;;;;;;;#&;;;;;;;#oo&#o&;;#oooooooooooo&;;#o&#&;;;;;",
"oooooooooooooooooooo ooooo&;;+  o  ooo             ooo  o %;#ooo",
"                          %;;+                            %;+   ",
"                          %;;+                            %#    ",
"                          %;;+                            %+    ",
"                          %;;+                            %+    ",
"                          %;#                             %+    ",
"                          %;=+                            %+    ",
"                          %;;=+$=+$===+$===================+    ",
"===========================;;;==;==;;;==;;;;;;;;;;;;;;;;;;;=====",
"ooooooooo&;;#oo&;;;;#o&;#&;#o&#oooo&#&#ooooo&;;;;#o&;;;#&#o&;;;;",
"         o&;+  ooooo  oo oo  o   $+o o     $=#ooo  ooo&=#  oooo&",
"          %;+                    o         %;+        oo       %",
"          %;+                              %;+                 %",
"          %;+                              %;=+                %",
"=+        %;+                              %;#                 %",
"o         %;+                              oo                  %",
"         $=;+                              $==+                %",
"==========;;==============================+%;;==================",
"o&;;#&;#&;;;;;;;#ooo&#&;;;;;;#&;;;#o&#&;;;==;;;;;;;;;;;;;;;;;;;;",
" ooo oo oooooooo    o ooooo&;+oooo  o ooooooooooooooo&;;#ooooooo",
"                           %#                        o&;+       ",
"                           %+                         o&+       ",
"                           %+                          %+       ",
"                           %+                          %=+      ",
"                          $=+                          %;+      ",
"    $+                    %;==+                        %;+      ",
"=+ $===+$==================;;;==========================;======="
};
