/* XPM */
static char *_8112eb5b59148d6d410490d8fe7afa7et5QITDK2LFyYJHZ[] = {
/* columns rows colors chars-per-pixel */
"64 64 169 2 ",
"   c #642F2D",
".  c #6B2F2A",
"X  c #63332E",
"o  c #6C322D",
"O  c #74342F",
"+  c #653532",
"@  c #6B3631",
"#  c #6E3934",
"$  c #693B38",
"%  c #723632",
"&  c #793732",
"*  c #743A35",
"=  c #7B3B36",
"-  c #763E3A",
";  c #7B3E39",
":  c #75403C",
">  c #7D413C",
",  c #7F4440",
"<  c #823D37",
"1  c #833E39",
"2  c #8A3F39",
"3  c #84433D",
"4  c #8B433D",
"5  c #92453E",
"6  c #91483F",
"7  c #854640",
"8  c #8C4641",
"9  c #854942",
"0  c #8C4A43",
"q  c #8E4E48",
"w  c #934641",
"e  c #994642",
"r  c #944B44",
"t  c #9B4C45",
"y  c #954E49",
"u  c #9C4E49",
"i  c #8E5049",
"p  c #955047",
"a  c #9C5047",
"s  c #95524B",
"d  c #9C534B",
"f  c #9B584F",
"g  c #945253",
"h  c #9C5751",
"j  c #9E5A52",
"k  c #9E5A5E",
"l  c #A14E47",
"z  c #A24E49",
"x  c #A05147",
"c  c #A4534C",
"v  c #AA554E",
"b  c #A5584F",
"n  c #AA584F",
"m  c #B2584F",
"M  c #A55650",
"N  c #AB5651",
"B  c #A45A52",
"V  c #AC5B53",
"C  c #A65B58",
"Z  c #AD5F58",
"A  c #B25751",
"S  c #B25A53",
"D  c #B15A52",
"F  c #B45D53",
"G  c #B65D53",
"H  c #B15954",
"J  c #B25B55",
"K  c #B25D54",
"L  c #B25D55",
"P  c #B05D56",
"I  c #B35C56",
"U  c #B35C57",
"Y  c #B35E56",
"T  c #B45F55",
"R  c #B45D57",
"E  c #B55E56",
"W  c #B55F57",
"Q  c #B65E56",
"!  c #B25C55",
"~  c #B85F57",
"^  c #B25D58",
"/  c #B15E58",
"(  c #B45E58",
")  c #B45E58",
"_  c #B85F58",
"`  c #B95F59",
"'  c #A46157",
"]  c #AD6057",
"[  c #A6635B",
"{  c #AE625A",
"}  c #AD625A",
"|  c #AF6C5F",
" . c #B16057",
".. c #B46056",
"X. c #B66157",
"o. c #B46157",
"O. c #B96157",
"+. c #B16159",
"@. c #B26159",
"#. c #B26359",
"$. c #B66158",
"%. c #B56259",
"&. c #B76359",
"*. c #B5615B",
"=. c #B7635B",
"-. c #B4645A",
";. c #B7665A",
":. c #B6645C",
">. c #B7665E",
",. c #B5625A",
"<. c #B8605A",
"1. c #B8615A",
"2. c #B8635B",
"3. c #B8625A",
"4. c #BA625A",
"5. c #BB635B",
"6. c #BC6159",
"7. c #BC615A",
"8. c #BA665B",
"9. c #BC655B",
"0. c #BA635D",
"q. c #BE635E",
"w. c #B9655C",
"e. c #BB645C",
"r. c #BA655C",
"t. c #BB665D",
"y. c #BA645E",
"u. c #B9665E",
"i. c #BA665F",
"p. c #BD665D",
"a. c #BE675D",
"s. c #BD655E",
"d. c #BE655E",
"f. c #BD665F",
"g. c #BF665F",
"h. c #BA645C",
"j. c #B4685E",
"k. c #B9695F",
"l. c #BD685F",
"z. c #BC685F",
"x. c #AF6C62",
"c. c #B66760",
"v. c #BC6760",
"b. c #B66A61",
"n. c #BB6861",
"m. c #BD6862",
"M. c #BE6863",
"N. c #BD6B62",
"B. c #BD7166",
"V. c #BE7469",
"C. c #BF7870",
"Z. c #C1665D",
"A. c #C1685D",
"S. c #C1695F",
"D. c #C06762",
"F. c #C06760",
"G. c #C56A63",
"H. c #C16C66",
"J. c #C26C63",
"K. c #C56D68",
"L. c #C96F68",
"P. c #C47166",
"I. c #C5736A",
"U. c #CB766B",
"Y. c #CA746B",
"T. c #C4796D",
"R. c #CB786D",
"E. c #D17A6F",
"W. c #CC7A71",
/* pixels */
"w 4 w 4 c d 4 T N X.7.9.c V 2.y.c n K 2.n 0.( K z c %.K N c t v n n ; r  .v n n w t t c n c z J %.V 4 4 e 5 t t t 4 e D r u t z ",
"v c y r 1 d > 3 d c v t d r y 9 > ; 3 0 3 M V { y d y y 0 d u 3 3 0 * i q 0 0 y 8 % y B -.v V V n.2.u u 1 t v c v Z c r r * c e ",
"y y 4 w c ; u d D V a.d d t u v B @.d F d / a.a.K N a.2.d N y.2.y.-.B c u Z n V c d y 3 3 3 0 0 B V j j 7 c Z d 8 1 4 4 B f @.@.",
"r d t t y l.v n D o t t t t t n c 8 c t 5 u V n n Z c l.B @.a.T %.:.c c T t 2 t f K -.y.%.z.V J.m.v.V c 3 e N D l r w 4 t F V %.",
"Z y.Z G.7._ 2.n A.M y.U.y.K r c M X.8.%.m.c v t w N %.t u X.B D v y v V t w w d f y.K J K T v 5.N z v a.d v 2 v v c c T v 2.z c ",
"( V %.D G.9.t a U.Z y n n n ( V y c y.V d :.m.2.v t t c 8 v V t N c V %.2.t K K 8 V %.V Z N %.y.t v v t 1 n e z z t A A A d N.v ",
"r 3 0 y 4 d n 3 f 3 d ; p } j { V K @.B } ] B s f f s B * 7 8 0 ; 4 4 3 0 3 3 Z d d r M y c = = * ; 3 3 3 d s y 7 8 s ; > > ; 3 ",
":.:.Z c Z 0 2.T f B v n n V d c N T r V e l t 3 4 t r V n c 6 6 w 5 z u Z V c 8 v r #.c { :.M w 8 r v c 3 u Z z.J.K.c.Z v ( V m.",
"m.m.J.P.P.0 d e  .t c v V u M T O.%.V m.2.T B n = w e t V K v 4 N Z v u v N u B ( V %.Z %.z.b F.m.m.y.y.:. .] m.J.Z c Z Z v y.2.",
"v Z K.P.z.r 6 X.B u v B v N B K a.K.a.( m.n.y.a.y X.F.2.n B K.B 8 z %.Z K n D Z Z.V t c c =.B K.m.J T V @.%.K %.K B y %.V v V n ",
"M 0 d v M 3 a c c c n c v 8 3 4 r t r t c c d c f p y y :.( v.n.} B s y c v J V P.J.J.K.F.=.s K v 2.K X.n K f Z B B 1 w r c n K ",
"s > 4 0 0 s y y B g y r 8 8 r 1 ; = r * 4 c a a z w r t d 0 c y c d T J.n f s f > 3 7 0 8 f B y y f Z d c { #.B f j B d f d r 4 ",
":.B t v c t e & t w t c y.%.n 2.v n l ; c l n t t c l t 6 6 c r Z.S t z ( n r c 0 z.Z r r d r Z t w V c n B v u d d V K V K D B ",
"0 y r 4 t n r n V N.a.v T T n V n c T 1 K x 6 v K c w 2 w 2 r 4 D z t z w t r l w t c c v 2.N t J c t r a.@.( T %.y.K T t v c c ",
"3 y V V y c N 4 t Z v Z c T c V n B B 8 c c c 6 t r B c t e w = t 2.u w 6 6 t t z N %.n.y.n N M N v =.c F.l.l.T c e w t M c l l ",
"y d d d B f 0 3 3 = f f f f f 0 q s f 0 h j q f s y j j.B.' | ] d b f f d r r 3 d V B B B } d c { V d d } 9 r d V B y ' j s q ; ",
"K @.c B y 0 v v %.V M N V 2.d 6 t t B v K n.s y r c n w t r y c n N A.D Z B B r t c z c n 3 Z.V 8.X.u % o X N r v B B c J.@.n.P.",
"Z n %._ N z e w v 4 ; 8 v c z v v 6 z S N u 3 P.P.%.B 2.K D u n v N V D r c n t c V a.P.J u T 2.c c e t w 3 4 c V B c 8 V y.m.J.",
"K.y.v B @.0.J c c t e t = V c 4 w l n v J D r V c n t c K V 9.X.( 0.z t c x -.B J.V V z J v K _ 7.S D A l * 2 3 u c T %.T c V a.",
"@.B v y d d d 8 = 3 = = 1 1 4 8 r c ; w t y - u t t w V v 5 t c r t r v y t r % n a t t w v w w w w x t 4 3 v B t v n %.v.Y.M t ",
"0 8 8 1 > f y M v ] V d M B s y d { d B V ;.r * 8 d V f y f v c 4 u K # - 0 y f V.V.N.B { b.N.y B b ] b.B.{ B c j 3 y 0 c t 0 c ",
"K t c v c y ; 7.V t c c r B K Z P.%.n l t B d %.n n c N b 4 F X.K n 2.Z ( a.n.y.J m.Z V V B %.r X.V n %.N.Y.P.N.t d w t c t V P.",
"z n c c n v 8 N d n c u N t N C y.G.n _ _ r 3 V v v v c y 4 c c n V v c v z z B 2.Z N e t c n * K v 5 5 n c 6 t d u u t K 8.V n ",
"0 c z c n c 4 V y r %.-.a.V u d d B 2.v N v * c K n v v y r < = t t V B 9.V F.y.( J c c v v n % V y.t t t v N d t = d c n n T K ",
"8 0 d 8 r y * 2 4 8 y y 0 r 3 3 ; y y 3 s 3 7 f B h V { C N.] j d 3 7 y r r d #.m.y.:.M r r r @ v K Z t z V u d d y 0 y 0 p 3 0 ",
"Z d { ] j M d ] B d B B c c r c @.0 C B f d 7 f 9 f c d M J.m.V c  .v Z s j f 3 > > > 7 d d r 7 > r 4 3 8 8 7 u d B y * B V f C ",
"@.K r v v 2.V c z.B V B r %.J.5.v d J.2.Z @.c v B c 8 M B Z B ( %.O.t B 3 w = 2 v t c 3 V v n n n %.n D N c 8 V V V V c t r t r ",
"B y.a.T V n v w J.S r T 3 t t c t 3 N -.Z 8.d t r K B K t u Z a.V 2.v V 3 T r 4 4 5 4 * t K v n N c n 4 d t y N d T c ( t n F.n ",
":.R.n.V c 4 v c w t t r 4 r 1 ; 1 3 N / y = -.c / %.V l.y.y u V t v v 3 @ t z N K N V 8 r r e e V N c ( m.N J n d d v T 5.Z y.a.",
"- 3 0 f f y B j { B.B.:.-.:.#.N.V r h f B h B j s s ; * = * * d r d r B 7 B r 4 r M u ; d s 8 c y d > < c c c c c Z u 8 3 y r r ",
"B 2.n c V %.%.v N ( K %.B J T T a.2.w r v 4 F.V u t 1 2 c s 8 2.n :.J.I.d } x.{ C.[ T.T.f % 1 ; * N.p 0 7 = r c v %.:.V K m.J.B ",
"t 2 n -.K w t v K.D %.v Z c m.L.2.a.y.J.Z 3 P.P.2.P.Y.Y.v.8.y a.K.F.:.K N u v 2 c v y 4 V T ( 2.d 0 T V 8.%.c z r N c t l l v e ",
"d c T P.F.( V u r t e r K v V n K.K 8.E.K.J.K.F.%.J.U.G.2.K f & t u J N y C n c v v l.n ; F.c  .d = K Z 8.y.K m.s r v V u z w 6 ",
"%.4 t l.%.c * * 9 9 q 0 ; 0 d f f y s 0 d q s { B B d 3 7 0 3 c v Z V d B c V N c n n a.8 c 2 0 B g O.T n V c V B o v c 2.J.K.P.",
"s Z y u t B V  .r t K %.B K n c 6 r t v r > B d c p r 8 v K 0 y y > 3 7 q y s 0 9 0 B f y B 4 t y - 3 ; * % = 3 7 8 r 0 B q q 0 ",
"t 4 N u c T K V N e c K t T V 2.K B %.a.B 4 w c c w t u t d c v B N.D V d @.v V  . .P.J.2.X.v N c t c y c d c d u c d c 4 4 6 2 ",
"1 o 1 e t d c z l v z t N V c / V t 4 v V % t e e T K B V v ( J.J.F.%.@.u F.A.a.K P.J.J V v n V %.T e e w w e v n B @.B o 4 4 t ",
"1 u ; w 4 4 < t r l t u r V T N d v V n b = 4 4 V t B V u v y.{ N.P.m.B c A.8.K  .M Z B c D v z 2 t 6 4 c l t t c N J.y.v l z z ",
"q B p q f s s s y ' h q f q s y p 7 s i f y y d f s b c f b.V C d B u y 4 0 V c B V B r w r r 4 0 6 4 4 < w r r N c T y.y y 4 8 ",
"c c m.K N V N.R.J J.c v V b %.%.%.0 F.8.c v c c c r B c 3 { B Z y.@.i % # 3 s d s s 3 * 3 = 3 f s 0 f s y 0 * 3 ; r j.b.C N.{ c ",
"t r r c u y n  .B t  .%.a.z.%.N n = t z n v t Z :.:.z.2.{ F.v N K d h  .] b V c K v %.r v z l _ T c c c n V Z F.T T T P.D 7.z D ",
"v a.%.K F.B d c ( a.G.Z 4 d B N V % d d n K l t n 4 c %.y c c e e u y %.T n a.;.v K X.3 4 F 5 e o . ; w t c %.D N t z c V B V 0.",
"3 3 d 4 c r 3 d b r e K d t u N c + X # % o v B t & O % 8 u z e t t M v r u c n t c n n w r N r t B c N X.d B l J Z c J ( B c N ",
"d B v j f j 9 s s s [ b.s 0 0 9 q > s s 3 N.[ f 0 0 q s i q 0 - 3 * 7 ;.c ] v B Z d f 3 u d w > ; & < ; > + 8 r d V d * 3 V C { ",
"2 w %.N 4 V n K J.B B y.f K d Z d V =. .4 d c V / K.y.t w t n K J.u J 5 y  .B w e r B %.P.P.n r d t D c c u V t v.@.Z t V t z N.",
"d M d %.U.V K G.K K N.:.0 V y r d s a.%.w c d @.n r Y.b / c r t V J z m z t c l c ( %.c v t V c y.n.t c c 6 t t 4 d u y.u r z %.",
"u c K d :.m.n.J.@.n.P.W.y @.:.m.P.d J.b y.=.V h J.u M / y.Z K w c K w v v c t c t D %.2.2.T n K  .d V t v 2.t T J u 4 c B c l t ",
"d y Z { f c V N.N.{ y.%.d z.y.b.{ c M c %.N.-.3 F.m.v.L.l.v T y K B V c B %.V N %.-.K K X.v u r 3 4 w 4 6 2 2 3 3 1 4 r r = ; 8 ",
"j q 3 r 7 ; 3 3 = 3 4 3 0 p f u r 4 3 8 ; 8 3 > 0 y d t c y = @ * > 3 % ; = = # * 3 ; > s [ s f j B B f i 0 9 3 - y q p f h j i ",
"r 4 e w t D D N N e 5 r t v 3 t z c v n c n t c B y r t l V V n c t c 4 3 4 t c r c @.> B :.#.T  .@.{ V p P.U.N.#.P.R.D D c / y ",
"n t 2 4 5 & & O l t l w w e n c c z r z n c t c e c t t c v v z v n c t t z c t t c -.Z B ( @.P.Y.n.:./ d c :.T %.O.n V c n c 3 ",
"v l N t c l e v t l ~ w 4 4 e l l t B B b v V V V c N c c t t z V 6 r w l l n u z z d V %.G.G.T ( y J ( d c V T D n K X.V M K 8 ",
"; 0 8 r = 3 7 r t 4 3 0 0 s u c f B B N.} B > s y 0 y y 3 * 3 ; 7 q p ; 0 0 0 q , ; 3 d 8.N c c u @.V V d y d c d B d d y r w 3 ",
"K y.J.l.N.B k J.z.B P.c c z.-.B c B y c c M 4 t v y v { n.d c B c 8.8.N.e y w 1 t y w ; 8 7 y u B b.#.N.n.Z @.l.y.d 2.:.R.Z N.Z ",
"n V v N %.{ 4 n T V T y.n v t T D D r 6 r y c c v c T V F.Z u = e d t 0 N l t w z c u c N T T n %.y.n.V K v z c F.G.%.c K.N.#.P.",
"r f B B N V B T t 5 5 D z z v z c V 4 = = > r t t < B n T V 2.c _ 2.V c V c V r 6 z N t d N D v u / a.l.v N B / @.F.%./ -.T.V K ",
"3 v Z m.n.3 = 3 ; v n 4 c c c r % w 4 1 c 4 n J m.J.P.P.B.s 0 ;.4 r c 4 n v D d u r 4 4 t 4 c y.v.c y.y.c K.@.c B B t V Z N.; d ",
"$ + > 9 ; * * > 7 - > @ : 9 i q 3 - * 9 b Z t u 3 3 r 8 4 = q y 9 , @ 3 3 - # X X @ # X # 8 o * # + @ > ; - > > 9 q s i >   9 9 ",
"z.] y.V %.K J / K m.2.a Z J.z.b.m.Y.M Y.@.@.v J M w 8.K D r V n B v K K n K T K r y 3 t t v 2.c K Z V n V c 7 , J.m.:.u d v V K ",
"y.3 d t a.2.m.B K K V B c J.V %.y.U.:.y.K.5.D J V = 3 2 < 4 e d n n A n c c 2.F.c N n w u A z n t 4 t w V w c y T a.2.T N N c @.",
"Z t B J w t N c P.P.B B Z J.K 5.K a.V V v.a.Z.J u r t c u c z d F.K V G.T 8.K Y.{ J.y.D w V c c w 4 e w n c t s J 2.y.a.D T / =.",
"c B r d y B B j.0 f d > > v d 0 3 ; r y s s 0 0 0 0 y 0 0 ; 7 @ 8 3 = y n u c c B n c w e 4 o 4 w t c t n n y 8 v t d T Z d B 7 ",
"} p 0 8 3 0 s B B d y V v y B V c r V v d c :.F.B K c :.-.V v r 4 r 4 %.u j @.f q 7 ' B j B B f q j j B j B j p 0 p 3 3 > j ; s ",
"b %.z.F.V 1 N n J d r r v v w t r V t v t 4 = e c K 2.B V c z c v t 6 V 2.r u V d y P.W.N.J.:.B K 0 c c r 6 t t r b B B c = N V "
};
