/* XPM */
static char *_db6f523c33f4705879dbdaed7a6df01sm7XacLvtui1BZ0Y[] = {
/* columns rows colors chars-per-pixel */
"64 64 145 2 ",
"   c #060303",
".  c #0D0403",
"X  c #130603",
"o  c #190703",
"O  c #160803",
"+  c #1C0903",
"@  c #240C03",
"#  c #290E04",
"$  c #2D1104",
"%  c #331405",
"&  c #391705",
"*  c #3D1906",
"=  c #371808",
"-  c #3C1B0A",
";  c #421C07",
":  c #461E08",
">  c #481F08",
",  c #46200A",
"<  c #4C230A",
"1  c #51260C",
"2  c #552A0E",
"3  c #582C0F",
"4  c #4D2710",
"5  c #562C11",
"6  c #5A2E11",
"7  c #573016",
"8  c #5E3113",
"9  c #5E3519",
"0  c #623416",
"q  c #663817",
"w  c #643718",
"e  c #663919",
"r  c #6D3E1D",
"t  c #6D3E1C",
"y  c #6E3E1D",
"u  c #6D3E1F",
"i  c #6E3E1E",
"p  c #6E3F1E",
"a  c #6C3D1C",
"s  c #6B3C1C",
"d  c #683D21",
"f  c #6A3E21",
"g  c #6F401E",
"h  c #6F401F",
"j  c #6F401F",
"k  c #70411F",
"l  c #70411F",
"z  c #6E4121",
"x  c #704121",
"c  c #724120",
"v  c #714220",
"b  c #714320",
"n  c #714221",
"m  c #734221",
"M  c #724321",
"N  c #724322",
"B  c #724323",
"V  c #734421",
"C  c #734422",
"Z  c #734423",
"A  c #744422",
"S  c #744423",
"D  c #744523",
"F  c #754523",
"G  c #754623",
"H  c #704427",
"J  c #754624",
"K  c #754625",
"L  c #764724",
"P  c #764725",
"I  c #774725",
"U  c #734523",
"Y  c #774826",
"T  c #774826",
"R  c #784926",
"E  c #794927",
"W  c #794A27",
"Q  c #7A4A26",
"!  c #7A4A27",
"~  c #794926",
"^  c #764A29",
"/  c #7A4A28",
"(  c #7B4B28",
")  c #7A4B29",
"_  c #7B4C2A",
"`  c #7C4C29",
"'  c #7C4D2A",
"]  c #7D4D2A",
"[  c #7C4D2B",
"{  c #7D4E2B",
"}  c #7E4F2B",
"|  c #7E4F2C",
" . c #7F4F2C",
".. c #7E4F2D",
"X. c #7C4D2A",
"o. c #7F502C",
"O. c #7F502D",
"+. c #7E512E",
"@. c #80512D",
"#. c #81522E",
"$. c #82532F",
"%. c #81522E",
"&. c #825330",
"*. c #835430",
"=. c #845531",
"-. c #855632",
";. c #865734",
":. c #845532",
">. c #875834",
",. c #875934",
"<. c #875935",
"1. c #865935",
"2. c #885A36",
"3. c #895B37",
"4. c #895A36",
"5. c #865A38",
"6. c #8E5F3B",
"7. c #8B5E3A",
"8. c #8E603C",
"9. c #8F613F",
"0. c #8E603D",
"q. c #90623E",
"w. c #8E6341",
"e. c #916440",
"r. c #916441",
"t. c #926540",
"y. c #936642",
"u. c #956845",
"i. c #986B47",
"p. c #966A48",
"a. c #9B6E4B",
"s. c #9A6F4C",
"d. c #9C6F4C",
"f. c #9A6E4B",
"g. c #9B714F",
"h. c #9D714E",
"j. c #A07553",
"k. c #A17553",
"l. c #A37855",
"z. c #A37857",
"x. c #A37957",
"c. c #A67D5A",
"v. c #A47B5A",
"b. c #AA8261",
"n. c #AE8867",
/* pixels */
"+ 9 n h i S E ) L E n S n @.<.-.@.) @.8.2.| E E L w e i ' *.E #   - L @.<.t.f.d.7.<.S i S L @.t.z.v.k.t.| n _ n i s s i L &.g.w ",
"O ; 2 < < 1 1 , : , 1 2 2 6 9 9 w 9 e i 0 6 8 2 < ; : 2 w L o.$   # , 0 s T 2.' h w 6 2 2 6 s C E o.L 8 5 9 6 1 6 6 6 2 6 n z.Z ",
"O % < 1 : : * & * : : , < 1 < , : , < < , 2 1 1 : * * 1 8 n ' & X # , w e C ' h w 6 , : : 1 6 w 0 w 1 : ; < 1 < 1 6 < , 1 s k.d ",
"O $ 2 5 < , ; & * , < 2 6 2 , : * * ; < , 1 2 2 < : ; < 6 s ' % X # , e i ' ) C 0 < : : , 6 5 6 2 6 < , : : 1 2 2 2 2 < 5 s s.w ",
"O # < 2 6 2 , , , , < 6 6 < ; ; * , : < < < 3 1 < , < 2 8 s | % X @ ; w w n E e 1 < < 1 1 6 8 0 5 2 < : , , 2 9 0 8 6 6 6 s 8.5 ",
"X @ : 6 w 6 1 2 2 1 1 6 2 , * ; ; < 6 2 1 6 0 6 1 1 6 8 w n *.$ . + ; 6 3 9 0 1 : : 2 6 8 6 w w 0 8 8 1 1 2 9 i s 9 5 6 1 w ;.4 ",
". + * 2 w s 0 0 9 5 2 0 6 < ; * * < 0 8 0 0 w w e e s 8 6 i -.$ . + & < < 2 < ; * ; < 2 6 2 e E E i i w 6 1 2 9 h i 6 2 < 9 ' , ",
". + & < e n i 0 6 2 6 6 6 , ; * ; 1 w w w 0 i i k k S h w n -.$ . O % ; ; : : : ; * < 2 6 8 s T o.S n w 0 2 6 8 w w 2 1 1 6 n - ",
". @ * < 0 k e 6 2 6 w s 8 < , , : 2 6 6 w w i i C i L h w i ) $ . O $ ; ; ; : , ; * * < 0 0 w h T C h 0 w 6 0 6 8 6 , , 2 w n - ",
"X @ * < w s 6 2 8 w i w 2 1 5 0 6 2 6 6 2 6 e C k s i 8 1 s E $ . O & 2 , * & : : & % ; 1 2 5 6 6 w 8 8 8 6 w 6 8 0 < 2 8 e o., ",
"X @ & < 2 8 0 w e i i 6 < 2 2 w e 8 < 2 2 2 w k s 0 2 < : 6 k $ . + & 8 6 1 , , * & % * , 6 2 1 2 2 < < 2 8 s w 8 w 5 9 w k o., ",
"X + & : 1 2 6 w w s s 2 2 2 1 s s 8 1 2 2 2 2 s 0 6 < < , 3 s $ . o % 8 s w 2 < ; & & : 1 6 1 1 < < > < 6 0 w 8 w w 6 s k _ 7.< ",
"X + # * : 1 6 2 2 w s w 6 6 6 e i s 8 8 2 < 6 s w 2 1 < ; 1 9 # . O & w L n 6 < : ; , < 5 2 1 6 6 6 6 2 8 0 2 2 2 6 6 s S o.7.< ",
"X O @ # $ & ; * ; , 6 2 < < 2 2 6 1 , ; & & ; ; * & % $ # % , @   X # < w 8 1 : : ; ; & * : : , 1 < < < 1 < & & & & * ; 1 8 ) , ",
"        . X O X O + + + + + o o o O O . . . X X . . .     . + +     . + @ @ @ + O O O O X X O O O o + O o O X X X . X X X o $ @ ",
".               . X X X X X . O . . X . . X X . . .                   . X O X X . .       . . +   . O O o o o O O X X X X X X . ",
"C Z _ Z Z s w e w C 8.w.y.3.| #   < C z _ *.<.<.*.*.^ w 6 9 9 9 6 7 s | 3.8.6.| C z s e z o.o.#   & o.7.p.z.n.z.t.t.8.y.*.o.o.z ",
"e h C h S s w 8 0 S <.*.[ E @.#   # < 0 n T -.7.*.n e 6 < 2 5 2 < < w i L L i h k s s w i ' t.%   @ < e S 7.t.-.@.' L L e w w 5 ",
"2 q s e s 9 2 2 9 w h s w 2 s @   + * 2 w h i ) E 0 1 , : , < 5 1 : < 1 2 6 2 6 9 8 2 2 2 w @.& . o & 2 6 k k w 6 2 8 0 2 : ; , ",
"8 e i i s 0 2 6 s h i i 6 , 8 +   + * 8 k ) E k w 2 < 1 2 2 2 w 6 2 2 < < 2 6 6 < : : < 2 w @.& X O % , 8 s 0 2 , < 6 0 6 < ; 1 ",
"e i s i q w 8 w e s e e 2 2 w +   + < s E ' S s 6 1 < 2 6 2 6 s 8 6 5 1 , , < 2 , ; * , 2 s 2.& . O % , 2 < , < : : < 2 1 : > 2 ",
"0 s i s w 0 s s 8 w w 9 2 0 L #   @ 1 i L -.L w 1 2 6 6 < < 6 w w 8 8 < & & ; 1 < < , < 6 h 2.* . O # ; ; ; , , : ; , , : * * : ",
"1 i L n w w i s w s w 8 6 w _ # . # 1 h S -.i 2 , 1 2 1 < , 1 8 w 8 8 < & * : 2 6 1 < 2 2 0 @.* . O # * & : < < < : , : : & & * ",
"1 e E k w q 0 w s s w 8 2 6 _ $   @ , i k L w 8 1 2 < 1 , ; < 0 9 6 2 , ; ; , 6 w 6 2 1 < 6 @.; . O # ; , , 2 6 3 2 < < : & & * ",
"6 s S s e 0 6 8 w w w 8 2 6 s #   + & 6 k k 0 s 8 6 1 < : * < 6 6 2 < 1 : : < w w 0 6 1 , 6 t., X O # , 1 , 2 0 w 8 2 1 < : : : ",
"0 e i w 2 2 3 8 8 2 2 6 5 8 s +   X % 2 s i h s 6 2 2 1 , ; , < 6 2 1 6 2 1 2 s s 8 2 < < i f.: X O # , 6 6 6 s w 6 2 2 , , < 2 ",
"e i L w 2 6 2 6 2 < , 3 2 8 s +   . # < 0 L ) s 6 1 < 1 < : , 6 0 8 8 8 6 9 8 s s 0 1 < 8 T h.; . O @ : 2 6 8 w 0 6 3 2 < : < w ",
"i k S e 6 2 < 2 2 , : 2 8 2 6 O   X # : 0 k s w 6 1 < 1 1 1 < w e i s s e i s s w 6 2 5 w E y.& . O # < 3 2 2 w 8 2 6 6 2 2 5 i ",
"i i s w < , < 2 2 1 < 6 6 6 8 o   X # , 6 w 9 6 2 2 6 2 2 1 1 w k L S k S k e s w 8 6 2 6 i >.& . X @ , 9 8 6 8 6 2 9 s w i h E ",
"6 2 , : & & * : : : , < 1 1 2 X   X $ < 2 6 1 < , , 1 < ; ; : 1 0 w e w e 9 1 , , , , * , 6 i $ . X + ; 2 2 1 < , : 2 9 s s i i ",
"# @ + + + O O O O + + + + @ #     . + # $ $ # @ @ @ @ + + + @ @ @ @ @ # # @ + + O + + + + @ % +     X + # # # # # + @ # $ $ $ # ",
"X X X X X X . . . . . . . X .       . X O O O X . . X . . . X X . . X X O O X . . . . . . X X .     . X O X X . X X . X O O X + ",
"& e w w z ^ d s s e 9 5 w 9 5 , , 4 2 9 w d s 5 5 7 9 s 5 7 & O O 2 d n ^ ) s 6 9 9 9 9 7 5 < , < 5 7 s d s 5 , < < < 7 s s 5 % ",
"# w L T <.7.2.@.' -.@.L C S L C e w 0 s | 8.2.*.<.q.2.2.-.f.4 . X 2 o.-.*.-.S s i E ) C n i i h i E -.7.7.8.| C s s i | | q.-.# ",
"o & , 1 8 i w 6 w i s 9 6 9 8 2 , : : < e L i n T E i w w -.4 X X % 2 5 3 6 < < 1 6 9 3 2 6 8 w 9 i C ' ' S w 8 < 1 6 6 0 s i # ",
"O $ , 1 2 8 6 8 s k e w 8 8 2 : ; ; , 2 9 n C s w w 8 6 0 *., O O % , < : < < < 2 6 6 2 5 e e n C n s e s w w 6 < , < 3 6 w e @ ",
"O $ , 2 2 1 1 6 e T s s w 6 2 ; : : 2 1 6 i s 0 e 9 3 < 3 n < + X # ; : : 2 2 3 2 6 6 6 8 8 i o.-.) L w w 9 8 2 , : < , 1 6 w # ",
"X # : 2 2 2 6 8 s n s w 0 6 2 : 1 2 < , 8 i w w s 8 1 * , i , + X # ; < , 1 6 6 2 6 8 6 2 2 i E ' ' E w 6 2 6 2 , < 2 , : < w $ ",
"o $ : 6 5 2 6 6 w i s w 6 2 , , 8 0 6 6 w n k i 0 8 , & ; i , O X # * < < 1 2 2 2 6 w w 6 6 w w i h w 6 1 2 3 6 2 5 6 < ; 2 i % ",
"o % : 2 1 6 6 2 0 9 8 2 < < , , 6 w h e s n C n w 6 , * ; 9 = X . + & < 2 , < < 3 0 w w 9 8 w 8 9 2 1 < : < 2 w 0 e s 2 , 5 C $ ",
"+ & 1 6 6 1 2 6 8 3 3 , ; * , , , 8 i s e 0 s S w 1 , * * 2 & X   O $ , 6 < < 1 9 s q w 8 w 8 < 1 < , , : < 2 w E L L 6 < 0 ' % ",
"@ ; 0 8 2 < 1 < < , 1 , : ; < < < 2 9 6 2 8 w i 0 2 2 < 1 8 % .   X % , 8 6 3 2 8 8 2 6 3 1 1 < , ; * , , 6 w i ' S s 6 6 e *.& ",
"# : w w 2 < 1 < : ; : : 1 2 1 6 2 1 < 2 1 8 e 0 6 1 2 2 s ) - .   O & < 6 6 0 6 2 2 2 6 6 < : , : : , 2 w w n @.' e 2 6 3 q 2.* ",
"# ; 6 w 0 1 < , : ; ; : < 6 w 3 < : : < 2 8 6 6 6 1 6 s h 7.4 O . + ; 2 6 8 2 2 < < 6 e 8 1 < , : ; , 6 i T E ' i w 2 < 2 w L % ",
"o & 6 i i 9 1 < : * & : < w i w 1 , 1 2 8 2 2 6 < 1 w k C i.5 + X # , 6 6 8 6 < , 2 e i w 1 , ; * & < 2 0 T ' T e w 2 < < 2 6 # ",
"O $ 2 n i e 8 2 , * & ; 6 e w 6 2 1 2 6 5 , 1 , ; 6 0 w s 7.4 O . # , 6 6 8 8 < : , 6 0 3 , & $ $ $ * 1 8 i e w w 0 < , : ; : + ",
". + $ * : ; ; % # + + # % % % % & $ # $ $ @ @ @ @ # # # & 6 ; + . o # % & % % $ # # $ $ # + O O O o @ # # $ % & % % # + + + # o ",
". . X O + o O X .   . X X X X X   O O O O X X X X . . . X o o O . . X X X . . . .   . .             O O O O o + + O .           ",
"& ; , 2 7 5 , & $ $ # $ % $ & & $ L u.v.z.8.<.L ) T s C *.u.v.z.f.o.&.o._ Z n z z z C L e 8 9 @ . 2 7.u.u.u.s.x.b.t.L C ) ^ s 9 ",
"' 3.t.i.f.f.*.S T n C L ) L u.:.. < _ &.@.S C e e w 8 0 s n ' *.' i e w w 9 w s S C C i 9 0 ) $   & w ) @.E ' -.2._ e s C n s 6 ",
"e s s s i s 8 1 1 , 2 6 0 e -.;.X % 1 2 3 5 8 2 1 < 6 8 2 < 2 6 8 < : : 1 1 2 6 s i s 6 < 2 @.% X @ ; w k w w e s w 2 1 6 8 6 < ",
"6 8 6 6 6 2 2 ; ; & ; , 5 w -.7.X % < 2 1 1 2 1 < 6 w 0 w 6 1 2 6 < * * , < 6 8 k s s 9 8 i 2.$ X + * 2 8 8 w s h 9 2 1 3 6 < < ",
"2 2 2 2 2 6 1 ; & & ; < 2 8 <.w.X # : < : : < 2 2 2 6 9 s s 6 6 6 < : ; ; , 2 w s s n i h *.t.$ . o % ; 1 2 w i w 8 1 1 2 6 6 1 ",
"< 2 2 2 w w 2 * & * 1 6 6 w 2.:.. # * ; * * , 1 2 2 2 e w w 0 3 2 < : * * : 2 2 8 w L -.*.8.8.% . o $ ; ; : 2 w w 8 1 2 1 6 w w ",
"1 2 6 6 w e 2 ; ; : 2 2 6 s -.o.. @ & * % & : 2 2 6 6 8 8 2 6 2 1 1 < > ; * < 1 0 h E -.@.@.7.% . + % * % * 1 6 6 6 1 2 2 6 w s ",
"8 2 2 6 0 0 8 , , 1 6 2 6 w @.*.. @ & * % % * < 6 w 8 2 < : , < 2 1 1 2 < , < 6 0 L ' @.T n @.$ . + % * * : 2 6 2 6 0 6 2 6 e s ",
"6 < < 2 8 0 e 6 < < < , 2 0 8.o.. # * , & $ & : 3 6 2 , < : < 2 0 9 2 2 1 < 6 e h S S E C s T # . o % : < 1 8 6 e w w 6 2 6 6 8 ",
"1 1 < 6 6 6 8 2 : : ; , 2 n t.<.. # ; 1 * & * < 2 2 3 1 6 , < 2 6 0 6 0 6 2 2 s i i s i w w C # . o & 1 9 s s w e 6 8 2 < 6 3 6 ",
"2 6 < 2 2 1 2 : * & * , < s 8.w.X # : 2 < , , 1 2 8 9 w w 2 < 1 2 6 8 w w w 6 0 0 w w e 8 6 s # . + & 2 e _ i w 3 < < , < 2 1 2 ",
"2 < , 2 < : < , * & & : 2 e 7.7.X # : 6 0 6 9 w e e w n k 9 < : 1 2 6 6 8 9 0 w w 6 0 6 2 2 e # . + ; 9 i L i n 8 < < < 2 1 , : ",
"1 ; ; < < , 1 6 , & ; , 2 8 -.5.. # : e n w w w i i h C S 9 1 : 2 w 6 1 2 6 8 0 0 6 6 2 2 1 0 # X # < e L C k h 0 6 6 8 6 1 ; ; ",
", : : < < 2 6 8 2 , < < < 8 ' ^ . + & w h w 0 w e e k i w 2 : ; < < , , , ; ; : , * & * ; : w $ O # : w s w 6 3 6 5 2 2 < ; * & ",
"# $ % % $ % & & & % & & & * 2 5   . + # $ $ $ # $ $ $ $ $ @ + + + + @ + O O O O O O O o + @ & + X + @ # # # @ @ @ # # @ + + O + ",
". . . . X X X X X . . . X X + #   . . . . . . . . X X X X X X X . . X       . . . . . X O O X X X X . . X X X X X X X X . X X O "
};
