/* XPM */
static char *dd85729479e345f3861c907e4c9311eaLngUEG0UpUVb0NjV[] = {
/* columns rows colors chars-per-pixel */
"64 64 145 2 ",
"   c #3D271D",
".  c #3B2820",
"X  c #362B29",
"o  c #29343F",
"O  c #432313",
"+  c #492716",
"@  c #4B2817",
"#  c #4E2C19",
"$  c #522E1B",
"%  c #56301D",
"&  c #59331E",
"*  c #4C2F20",
"=  c #4F3325",
"-  c #4D362D",
";  c #573726",
":  c #5D3520",
">  c #5F3824",
",  c #523628",
"<  c #543A2C",
"1  c #433C3A",
"2  c #493F3D",
"3  c #603722",
"4  c #603822",
"5  c #5A4236",
"6  c #5C4539",
"7  c #6D422D",
"8  c #73452B",
"9  c #79472C",
"0  c #76492E",
"q  c #7C4D2F",
"w  c #654634",
"e  c #694532",
"r  c #6D4B39",
"t  c #704732",
"y  c #764A32",
"u  c #7D4D32",
"i  c #714D3A",
"p  c #7F5031",
"a  c #7A523C",
"s  c #37424D",
"d  c #4F4746",
"f  c #4B494A",
"g  c #404B56",
"h  c #56565B",
"j  c #6A5144",
"k  c #755849",
"l  c #7D5D4D",
"z  c #545F6C",
"x  c #814D2F",
"c  c #824E34",
"v  c #845133",
"b  c #8A5435",
"n  c #885837",
"m  c #805239",
"M  c #8D5738",
"N  c #8F593A",
"B  c #925637",
"V  c #935B37",
"C  c #915638",
"Z  c #945C3A",
"A  c #9A5C3A",
"S  c #94603F",
"D  c #855C42",
"F  c #8F5F44",
"G  c #915E41",
"H  c #8F6045",
"J  c #8E6148",
"K  c #906045",
"L  c #9D6142",
"P  c #9F6846",
"I  c #936449",
"U  c #906750",
"Y  c #926C56",
"T  c #986A50",
"R  c #8F705C",
"E  c #9F7056",
"W  c #92715E",
"Q  c #9A745D",
"!  c #AF744F",
"~  c #AF7956",
"^  c #B17650",
"/  c #B27853",
"(  c #876E62",
")  c #8C7264",
"_  c #967461",
"`  c #997460",
"'  c #997966",
"]  c #947D6E",
"[  c #9C7D69",
"{  c #A17861",
"}  c #AE856B",
"|  c #B38162",
" . c #AF8C76",
".. c #6E7985",
"X. c #727D89",
"o. c #9E948F",
"O. c #9D9795",
"+. c #AD998D",
"@. c #A59D98",
"#. c #A99F9A",
"$. c #AFA097",
"%. c #AAA39E",
"&. c #BBA89D",
"*. c #8E99A6",
"=. c #949FAD",
"-. c #A5A5A5",
";. c #ACABAB",
":. c #B5ACA7",
">. c #BEB2AB",
",. c #B4B4B4",
"<. c #B9B7B5",
"1. c #BBB8B6",
"2. c #BBBBBB",
"3. c #C8B3A5",
"4. c #C5B7AF",
"5. c #C1BBB7",
"6. c #C5C4C3",
"7. c #CFC9C5",
"8. c #CCCCCC",
"9. c #D5D1CF",
"0. c #DAD0CB",
"q. c #D4D4D4",
"w. c #DDDDDD",
"e. c #E0D5CF",
"r. c #E1E1E1",
"t. c #E4E4E4",
"y. c gray90",
"u. c #E7E7E7",
"i. c #E2E2E2",
"p. c gray91",
"a. c #EAEAEA",
"s. c #ECECEC",
"d. c #EEEEEE",
"f. c #EFEFEF",
"g. c gray93",
"h. c #F1F1F1",
"j. c gray96",
"k. c gray97",
"l. c #F6F6F6",
"z. c gray98",
"x. c #FBFBFB",
"c. c #FDFDFD",
"v. c #FEFEFE",
"b. c white",
"n. c #FEFEFE",
/* pixels */
"O O O O O O O O O O O O O O O O O O O O O O O O O O O O O O O O O O O O O O O O O O O O O O O O O O O O O O O O O O O O O O O O ",
"O @ : & % & & $ : : 3 4 4 4 & & % % $ $ : 4 3 : : $ & & % & : O @ : & % & & $ : : 3 4 4 4 & & % % $ $ : 4 3 : : $ & & % & : @ O ",
"O & b u y p p u v v M M M M M M M M M M M M M v v u p p y u b O & b u y p p u v v M M M M M M M M M M M M M v v u p p y u b & O ",
"O & b u y v v v v v M M M K _ M M M M M M M M v v v v v y u b O & b u y v v v v v M M M M M M M M M M M M M v v v v v y u b & O ",
"O & M u q b b b b b M M M I %.M M M M M M M M b b b b b q u M O & M u q b b b b b M M M M M M M M M M M M M b b b b b q u M & O ",
"  ; M u q v v v c c q q q ' q.m q q q q q q q c c v v v q u M   ; M u q v v v c c q q q q q q q q q q q q q c c v v v q u M ;   ",
"o 2 M v 0 O O O O O O O , 6.j.:.O.5 < * O O O O O O O O 0 v M o 2 M v 0 O O O O O O O O O O O O O O O O O O O O O O O 0 v M 2 o ",
"s d m u 0 O O $ $ $ $ $ o.i.z.h.i.6.O.j $ $ $ $ $ $ O O 0 u m s d m u 0 O O $ $ $ $ $ $ $ $ $ $ $ $ $ $ $ $ $ $ $ O O 0 u m d s ",
"=.X.o w q O 3 ^ ^ ^  .1.9.p.z.d.3./ ^ ^ ^ ^ ^ ^ ^ ^ 3 O q w o =.X.o w q O 3 ^ ^ ^ ^ ^ ^ ^ ^ ^ ^ ^ ^ ^ ^ ^ ^ ^ ^ ^ 3 O q w o X.=.",
"=.X.o w q O e ! ! ! ~ ~ } >.w.e.| ! ! ! ! ! ! ! ! ! : O q w o =.X.o w q O : ! ! ! ! ! ! ! ! ! ! ! ! ! ! ! ! ! ! ! : O q w o X.=.",
"=.X.o r W ;.,._ M M b b b F +.5.b b b b b b b M M x $ O v r o =.X.o r v O $ x M M b b b b b b b b b b b b b M M x $ O v r o X.=.",
"=.X.o k ;.q.t.1.M M b b b b b ;.N b b b b b b M M x $ O v r o =.X.o r v O $ x M M b b b b b b b b ;.b b b b M M x $ ,.-.r o X.=.",
"=.X.o i [ 8.y.,.I V N N N N N ` G N N N N N N V N b $ O M i o =.X.o i M O $ b N V N N N N N N N N ,.N N N N V N b ,.p.8.i o X.=.",
"=.X.o i M -.,.' V V N N N N N N N N N N N N N V V b $ O M i o =.X.o i M O $ b V V N N N N N N N N y.2.N N N V V b 2.y.q.;.o X.=.",
"=.X.o i M , $ b b b M M M M M M M M M M M M M b b b $ O M i o =.X.o i M O $ b b b M M M M M M M 8.b.d.;.M M b b b $ ,.-.i o X.=.",
"=.X.o i M O $ b b b M M M M M M M M M M M M M b b b $ O M i o =.X.o i M O $ b b b M M M M -.,.i.j.b.b.d.8.;.b b b $ O M i o X.=.",
"g f w v M O $ u v b M M M M M M M M M M M M M b v u $ O M v w g f w v M O $ u v b M M M M M M -.8.b.d.,.M M b v u $ O M v w f g ",
"o 1 0 b b O $ y v b M M M M M M M M M M M M M b v y $ O b b 0 o 1 0 b b O $ y v b M M M M M M M M j.q.M M M b v y $ O b b 0 1 o ",
". = q V B O $ 9 m m b b b b b b b b b b b b b m m 0 $ O B V q . = q V B O $ 9 m m b b b b b b b b 1.b b b b m m 0 $ O B V q = . ",
"O % q V B O $ 0 u u b b b b b b b b b b b b b u u 0 $ O B V q O % q V B O $ 0 u u b b b b b b b b -.b b b b u u 0 $ O B V q % O ",
"O % q M C O $ 9 c v b b b b b b b b b b b b b v c 9 $ O C M q O % q M C O $ 9 c v b b b b b b b b b b b b b v c 9 $ O C M q % O ",
"O % q M M O $ u v v b b b b b b b b b b b b b v v u $ O M M q O % q M M O $ u v v b b b b b b b b b b b b b v v u $ O M M q % O ",
"O % 0 b M O $ y b b M M M M M M M M M M M M M b b y $ O M b 0 O % 0 b M O $ y b b M M M M M M M M M M M M M b b y $ O M b 0 % O ",
"O $ 0 v b O $ y M M M M M M M M M M M M M M M M M y $ O b v 0 O $ 0 v b O $ y M M M M M M M M M M M M M M M M M y $ O b v 0 $ O ",
"O % 0 M M O $ y u u u u u u u u u u u u u u c u u y $ O M M 0 O % 0 M M O $ y u u u u u u u u u u u u u u c u u y $ O M M 0 % O ",
"O % q V B O # 7 7 7 7 7 7 7 7 7 7 7 7 7 7 7 7 7 7 7 # O B V q O % q V B O # 7 7 7 7 7 7 7 7 7 7 7 7 7 7 7 7 7 7 7 # O B V q % O ",
"O % v V B O O > > > > > > > 4 > > > > > 4 > > > > 4 @ O B M v O % v V B O O > > > > > > > 4 > > > > > 4 > > > > 4 @ O B M v % O ",
"O & n V M O O O O O O O O O O O O O O O O O O O O O O O M V n O & n V M O O O O O O O O O O O O O O O O O O O O O O O M V n & O ",
"O & b N b $ $ $ % % % % % % % % % % % % % % % % % $ $ $ b N b O & b N b $ $ $ % % % % % % % % % % % % % % % % % $ $ $ b N b & O ",
"O & b M M u u c V Z b b b b b b b b b b b b b Z V c u u M M b O & b M M u u c V Z b b b b b b b b b b b b b Z V c u u M M b & O ",
"O & b M M u u c V Z b b b b b b b b b b b b b Z V c u u M M b O & b M M u u c V Z b b b b b b b b b b b b b Z V c u u M M b & O ",
"O : M M M v v u N N b b b b b b b b b b b b b N N u v v M M M O : M M M v v u N N b b b b b b b b b b b b b N N u v v M M M : O ",
"O : M M M v v u N N b b b b b b b b b b b b b N N u v v M M M O : M M M v v u N N b b b b b b b b b b b b b N N u v v M M M : O ",
"O : M N N b b c b b v v v v v v v v v v v v v b b c b b N N M O : M N N b b c b b v v v v v v v v v v v v v b b c b b N N M : O ",
"O : M N N b b c b b v v v v v v v v v v v v v b b c b b N N M O : M N N b b c b b v v v v v v v v v v v v v b b c b b N N M : O ",
"O & b V V b b b b b M M M M M M M M M M M M M b b b b b V V b O & b V V b b b b b M M M M M M M M M M M M M b b b b b V V b & O ",
"O & b V V b b b b b M M M M M M M M M M M M M b b b b b V V b O & b V V b b b b b M M M M M M M M M M M M M b b b b b V V b & O ",
"O & v V B + + + + + + + + + + + + + + + + + + + + + + + B V v O & v V B + + + + + + + + + + + + + + + + + + + + + + + B V v & O ",
"O & v V B O O O O O O O O O O O O O O O O O O O O O O O B V v O & v V B O O O O O O O O O O O O O O O O O O O O O O O B V v & O ",
"O & v V B O : P P P P P P P P P P P P P P P P P P P : O B V v O & v V B O : P P P P P P P P P P P P P P P P P P P : O B V v & O ",
"O & v V B O 3 ^ ^ ^ ^ ^ ^ ^ ^ ^ ^ ^ ^ ^ ^ ^ ^ ^ ^ ^ 3 O B V v O & v V B O 3 ^ ^ ^ ^ ^ ^ ^ ^ ^ ^ ^ ^ ^ ^ ^ ^ ^ ^ ^ 3 O B V v & O ",
"O & v M M O $ b Z Z Z Z Z Z Z Z Z Z Z Z Z Z S Z Z b $ O M M v O & v M M O $ b Z Z Z Z Z Z Z Z Z Z Z Z Z Z Z S Z b $ O M M v & O ",
"O & v M b O $ u b M M M M N M M M M M M M M N M b u $ O b M v O & v M b O $ u b M M M M M N M M M M M M M M M b u $ O b M v & O ",
"O & v b v O $ c b b b b b b b b b b b b b b b b b c $ O v b v O & v b v O $ c b b b b b b b b b b b b b b b b b c $ O v b v & O ",
"O % v b v O $ c b b v v v v v v v v v v v v v b b c $ O v b v O % v b v O $ c b b v v v v v v v v v v v v v b b c $ O v b v % O ",
"O % p b c O $ c b b v v D R v v v v v v v v v b b c $ O c b p O % p b c O $ c b b v v v v v v v v v v v v v b b c $ O c b p % O ",
"O % u v c O $ c b b q q D %.q q q q q q q q q b b c $ O c v u O % u v c O $ c b b q q q q q q q q q q q q q b b c $ O c v u % O ",
"X - u b v O $ c v v v v [ q.b v v v v v v v v v v c $ O v b u X - u b v O $ c v v v v v v v v v v v v v ,.;.v v c $ O v b u - X ",
"o 1 u b v O $ c v v b H 7.j.4.#.U J N b b b b v v c $ O v b u o 1 u b v O $ c v v b b b b b b b b b b ;.w.i.;.v c $ O v b u 1 o ",
"z h 6 u v O $ c u u M $.i.z.h.i.6.@.Y b b b b u u c $ O v u 6 z h 6 u v O $ c u u M M b M b b b b b b ;.w.i.;.u c $ O v u 6 h z ",
"=.X.o r c O $ u y ) <.9.p.z.d.&.N M M M M M M y y u $ O c r o =.X.o r c O $ u y y M M M M M M M M M M M ,.;.y y u $ O c r o X.=.",
"=.X.o r v O $ u y a G Q :.w.0.T N N N N N N N y y u $ O v r o =.X.o r v O $ u y y N N N N N N N N N N N N N y y u $ O v r o X.=.",
"=.X.o i v O $ c y y N N I +.5.N N N N N N N N y y c $ O v i o =.X.o i v O $ c y y N N N N N N N N N N N N N y y c $ O v i o X.=.",
"=.X.o i v O $ v u u N N N N ;.G N N N N N N N u u v $ O v i o =.X.o i v O $ v u u N N N N N N N ;.N N N N N u u v $ O v i o X.=.",
"=.X.o r v O $ b v v V V V V Q S V V V V V V V v v b $ O v r o =.X.o r v O $ b v v V V V V V V V ,.V V V V V v v b $ O v r o X.=.",
"=.X.o r v O $ v u u b b b b b b b b b b M b b u u v $ O v r o =.X.o r v O $ v u u b b b b b b b y.2.b M b b u u v $ O v r o X.=.",
"=.X.o i v O # 7 7 7 7 t 7 7 7 7 7 7 7 7 7 7 7 7 7 7 # O v i o =.X.o i v O # 7 7 7 7 7 7 7 7 7 8.b.d.;.7 7 7 7 7 7 # O v i o X.=.",
"*...o i v O # 7 7 ( ;.;.l 7 7 7 7 7 7 7 7 7 7 7 7 7 # O v i o *...o i v O # 7 7 7 7 7 7 -.,.i.j.b.b.d.8.;.7 7 7 7 # O v i o ..*.",
"o 1 8 v v O O O < ;.q.q.;.O O O O O O O O O O O O O O O v v 8 o 1 8 v v O O O O O O O O O O -.8.b.d.,.O O O O O O O O v v 8 1 o ",
"o 1 8 v v O O O @ ;.i.w.;.# O O O O O O O O O O O O O O v v 8 o 1 8 v v O O O O O O O O O O O O j.q.O O O O O O O O O v v 8 1 o ",
"O $ 0 v M v c 0 q ] ,.,.{ V V V V V V V A V V q q 0 c v M v 0 O $ 0 v M v c 0 q q V V V V V A A 1.V V V V V u u 0 c v M v 0 $ O ",
"O $ 0 v M v v 0 p p E L A A A A A A A A A A A p p 0 v v M v 0 O $ 0 v M v v 0 p p A A A A A A A -.A A A A A p p 0 v v M v 0 $ O ",
"O $ 8 u v v u 0 p p N N N N N N N N N N N N N p p 0 u v v u 8 O $ 8 u v v u 0 p p N N N N N N V N N N N N N p p 0 u v v u 8 $ O ",
"O $ 8 u v p u 0 p v M M M M M M N M M M N M M p p 0 u p v u 8 O $ 8 u v p u 0 p p M M M M M M N M M M N M M p p 0 u p v u 8 $ O "
};
