/* XPM */
static char *_c8478b977c140e3ed0efc20635d588eAZJMia3BR1zzI1cc[] = {
/* columns rows colors chars-per-pixel */
"64 64 143 2 ",
"   c #3D271D",
".  c #3B2820",
"X  c #362B29",
"o  c #29343F",
"O  c #432313",
"+  c #492716",
"@  c #4B2817",
"#  c #462718",
"$  c #4E2C1A",
"%  c #522E1B",
"&  c #56301D",
"*  c #59331E",
"=  c #4C2F20",
"-  c #4F3224",
";  c #4D362D",
":  c #563625",
">  c #5D3520",
",  c #5F3824",
"<  c #523628",
"1  c #54392C",
"2  c #433C3A",
"3  c #493F3D",
"4  c #603722",
"5  c #603822",
"6  c #643E2A",
"7  c #5A4236",
"8  c #5C4539",
"9  c #6D422D",
"0  c #73452B",
"q  c #79472C",
"w  c #76492E",
"e  c #7C4D2F",
"r  c #654634",
"t  c #6E4430",
"y  c #6D4B39",
"u  c #764A32",
"i  c #7D4D32",
"p  c #714E3A",
"a  c #7F5031",
"s  c #76503E",
"d  c #7F5239",
"f  c #323C47",
"g  c #37424D",
"h  c #4F4746",
"j  c #4B494A",
"k  c #404B56",
"l  c #56565B",
"z  c #6A5144",
"x  c #715241",
"c  c #7C5B4B",
"v  c #7C6254",
"b  c #545F6C",
"n  c #814D2F",
"m  c #824E34",
"M  c #845133",
"N  c #8A5435",
"B  c #885837",
"V  c #81533A",
"C  c #8D5738",
"Z  c #8F593A",
"A  c #925637",
"S  c #935B37",
"D  c #915638",
"F  c #945C3A",
"G  c #9A5D3A",
"H  c #865740",
"J  c #8D5E42",
"K  c #915F42",
"L  c #8D634B",
"P  c #906146",
"I  c #9F6846",
"U  c #92644A",
"Y  c #9C6649",
"T  c #8A6954",
"R  c #936A52",
"E  c #9D6B50",
"W  c #946E58",
"Q  c #AF744F",
"!  c #AF7956",
"~  c #B17650",
"^  c #B27853",
"/  c #957360",
"(  c #997460",
")  c #997A66",
"_  c #AE856B",
"`  c #B38162",
"'  c #AF8C76",
"]  c #6E7985",
"[  c #727D89",
"{  c #928A86",
"}  c #958D88",
"|  c #9F938E",
" . c #9D9794",
".. c #9D9997",
"X. c #A2958E",
"o. c #AB988E",
"O. c #A29994",
"+. c #A99A92",
"@. c #A99F9A",
"#. c #A5A09D",
"$. c #ABA29D",
"%. c #8E99A6",
"&. c #949FAD",
"*. c #A6A6A5",
"=. c #A8A5A3",
"-. c #AFAAA7",
";. c #ACACAB",
":. c #B1A9A5",
">. c #B3B0AF",
",. c #BEB2AB",
"<. c #B3B3B3",
"1. c #BBB8B6",
"2. c #BCBCBC",
"3. c #C8B3A5",
"4. c #C1BAB7",
"5. c #C6C4C2",
"6. c #CAC7C5",
"7. c #CCCCCC",
"8. c #D6D2CF",
"9. c #D4D4D4",
"0. c #D8D8D8",
"q. c gainsboro",
"w. c #DDDDDD",
"e. c #DFDFDF",
"r. c #DBDBDB",
"t. c #E0D5CF",
"y. c gray88",
"u. c #E2E2E2",
"i. c gray89",
"p. c #E4E4E4",
"a. c gray90",
"s. c #E7E7E7",
"d. c #E4E4E4",
"f. c gray91",
"g. c #EAEAEA",
"h. c #EEEEEE",
"j. c #ECECEC",
"k. c #F1F1F1",
"l. c gray96",
"z. c #F6F6F6",
"x. c gray98",
"c. c #FBFBFB",
"v. c #FEFEFE",
/* pixels */
"O O O O O O O O O O O O O O O O O O O O O O O O O O O O O O O O O O O O O O O O O O O O O O O O O O O O O O O O O O O O O O O O ",
"O @ > * & * * % > > 4 5 5 5 * * & & % % > 5 4 > > % * * & * > O @ > * & * * % > > 4 5 5 5 * * & & % % > 5 4 > > % * * & * > @ O ",
"O * N i u a a i M M C C C C C C C C C C C C C M M i a a u i N O * N i u a a i M M C C C C C C C C C C C C C M M i a a u i N * O ",
"O * N i u M M M M M C C C P / C C C C C C C C M M M M M u i N O * N i u M M M M M C C C C C C C C C C C C C M M M M M u i N * O ",
"O * C i e N N N N N C C C U $.C C C C C C C C N N N N N e i C O * C i e N N N N N C C C C C C C C C C C C C N N N N N e i C * O ",
"  : C i e M M M m m e e e ) 0.V e e e e e e e m m M M M e i C   : C i e M M M m m e e e e e e e e e e e e <.;.m M M M e i C :   ",
"o 3 C M w O O O O O O O < 5.l.:. .7 1 = O O O O O O O O w M C o 3 C M w O O O O O O O O O O O O O O O O ;.e.i.;.O O O <.<.C 3 o ",
"g h V i w O O % % % % % | i.x.k.i.5. .z % % % % % % O O w i V g h V i w O O % % % % % % % % % % % % % % ;.e.i.;.% O O ;.<.V h g ",
"&.[ o r e O 4 ~ ~ ~ ' 1.8.f.x.h.3.^ ~ ~ ~ ~ ~ ~ ~ ~ 4 O e r o &.[ o r e O 4 ~ ~ ~ ~ ~ ~ ~ ~ ~ ~ ~ ~ ~ ~ ~ <.;.~ ~ 4 O e r o [ &.",
"&.[ o r e O 6 Q Q Q ! ! _ ,.e.t.` Q Q Q Q Q Q Q Q Q > O e r o &.[ o r e O > Q Q Q Q Q Q Q Q Q Q Q Q Q Q Q Q Q Q Q > O e r o [ &.",
"&.[ o y L #.O.L C C N N N J o.4.N N N N N N N C C n % O M y o &.[ o y M O % n C C N N N N N N N N N N N N N C C n % O M y o [ &.",
"&.[ o x O.9.a.<.C C N N N N N ;.Z N N N N N N C C n % O M y o &.[ o y M O % n C C N N N N N N N N N N N N N C C n % <.*.y o [ &.",
"&.[ o p R 5.a.$.K S Z Z Z Z Z ( K Z Z Z Z Z Z S Z N % O C p o &.[ o p C O % N Z S Z Z Z Z Z Z Z Z Z Z Z Z Z S Z N <.f.7.p o [ &.",
"&.[ o p C { ;.R S S Z Z Z Z Z Z Z Z Z Z Z Z Z S S N % O C p o &.[ o p C O % N S S Z Z Z Z Z Z Z Z Z Z Z Z Z S S N 2.a.0.;.o [ &.",
"&.[ o p C $ % N N N C C Z C C C C C C C C C C N N N % O C p o &.[ o p C O % N N N C C C C C C C C C C C C C N N N % <.*.p o [ &.",
"&.[ o p C O % N N N R $.o.P C C C C C C C C C N N N % O C p o &.[ o p C O % N N N C C C C C C C C C C C C C N N N % O C p o [ &.",
"k j r M C O % i M J +.0.0.#.C C C C C C C C C N M i % O C M r k j r M C O % i M N C C C C C C C C C C C C C N M i % O C M r j k ",
"o 2 w N J  .=.u M N ;.i.e.@.Z C C C C C C C C N M u % O N N w o 2 w N N O % u M N C C C C C C C C C C C C C N M u % O N N w 2 o ",
". - e S A =.<.d V V W :.<.U N N N N N N N N N V V w % O A S e . - e S A O % q V V N N N N N N N N N N N N N V V w % O A S e - . ",
"O & e S A 1 : w i i N J N N N N N N N N N N N i i w % O A S e O & e S A O % w i i N N N N N N N N N N N N N i i w % O A S e & O ",
"O & e C D O % q m M N N N N N N N N N N N N N M m q % O D C e O & e C D O % q m M N N N N N N N N N N N N N M m q % O D C e & O ",
"O & e C C O % i M M N N N N N N N N N N N N N M M i % O C C e O & e C C O % i M M N N N N N N N N N N N N N M M i % O C C e & O ",
"O & w N C O % u N N C C C C C C C C C C C C C N N u % O C N w O & w N C O % u N N C C C C C C C C C C C C C N N u % O C N w & O ",
"O % w M N O % u C C C C C C C C C C C C C C C C C u % O N M w O % w M N O % u C C C C C C C C C C C C C C C C C u % O N M w % O ",
"O & w C C O % u i i i i i i i i i i i i i i m i i u % O C C w O & w C C O % u i i i i i i i i i i i i i i m i i u % O C C w & O ",
"O & e S A O $ 9 9 9 9 9 9 9 9 9 9 9 9 9 9 9 9 9 9 9 $ O A S e O & e S A O $ 9 9 9 9 9 9 9 9 9 9 9 9 9 9 9 9 9 9 9 $ O A S e & O ",
"O & M S A O O , , , , , , , 5 , , , , , 5 , , , , 5 @ O A C M O & M S A O O , , , , , , , 5 , , , , , 5 , , , , 5 @ O A C M & O ",
"O * B S C O O O O O O O O O O O O O O O O O O O O O O O C S B O * B S C O O O O O O O O O O O O O O O O O O O O O O O C S B * O ",
"O * N Z N % % % & & & & & & & & & & & & & & & & & % % % N Z N O * N Z N % % % & & & & & & & & & & & & & & & & & % % % N Z N * O ",
"O * N C C i i m S F N N N N N N N N N N N N N F S m i i C C N O * N C C i i m S F N N N N N N N N N N N N N F S m i i C C N * O ",
"O * N C C i i m S F N N N N N N N N N N N N N F S m i i C C N O * N C C i i m S F N N N N N N N N N N N N N F S m i i C C N * O ",
"O > C C C M M i Z Z N N N N N N N N N N N N N Z Z i M M C C C O > C C C M M i Z Z N N N N N N N N N N N N N Z Z i M M C C C > O ",
"O > C C C M M i Z Z N N N N N N N N N N N N N Z Z i M M C C C O > C C C M M i Z Z N N N N N N N N N N N N N Z Z i M M C C C > O ",
"O > C Z Z N N m N N M M M M M M M M M M M M M N N m N N Z Z C O > C Z Z N N m N N M M M M M M M M M M M M M N N m N N Z Z C > O ",
"O > C Z Z N N m N N M M M M M M M M M M M M M N N m N N Z Z C O > C Z Z N N m N N M M M M M M M M M M M M M N N m N N Z Z C > O ",
"O * N S S N N N N N C C C C C C C C C C C C C N N N N N S S N O * N S S N N N N N C C C C C C C C C C C C C N N N N N S S N * O ",
"O * N S S N N N N N C C C C C C C C C C C C C N N N N N S S N O * N S S N N N N N C C C C C C C C C C C C C N N N N N S S N * O ",
"O * M S A + + + + + + + + + + + + + + + + + + + + + + + A S M O * M S A + + + + + + + + + + + + + + + + + + + + + + + A S M * O ",
"O * M S A O O O O O O O O O O O O O O O O O O O O O O O A S M O * M S A O O O O O O O O O O O O O O O O O O O O O O O A S M * O ",
"O * M S A O > I I I I I I I I I I I I I I I I I I I > O A S M O * M S A O > I I I I I I I I I I I I I I I I I I I > O A S M * O ",
"O * M S A O 4 ~ ~ ~ ~ ~ ~ ~ ~ ~ ~ ~ ~ ~ ~ ~ ~ ~ ~ ~ 4 O A S M O * M S A O 4 ~ ~ ~ ~ ~ ~ ~ ~ ~ ~ ~ ~ ~ ~ ~ ~ ~ ~ ~ 4 O A S M * O ",
"O * M C C O % N F F F F F F F F F F F F F F K F F N % O C C M O * M C C O % N F F F F F F F F F F F F F F F K F N % O C C M * O ",
"O * M C N O % i N C C C C Z C C C C C C C C Z C N i % O N C M O * M C N O % i N C C C C C Z C C C C C C C C C N i % O N C M * O ",
"O * M N M O % m N N N N N N N N N N N N N N N N N m % O M N M O * M N M O % m N N N N N N N N N N N N N N N N N m % O M N M * O ",
"O & M N M O % m N N M M M M M M M M M M M M M N N m % O M N M O & M N M O % m N N M M M M M M M M M M M M M N N m % O M N M & O ",
"O & a N m O % m N N M M M M M M M M M M M M M N N m % O m N a O & a N m O % m N N M M M M M M M M M M M M M N N m % O m N a & O ",
"O & i M m O % m N N e e e e e e e e e e e e e N N m % O m M i O & i M m O % m N N e e e e e e e e e e e e e N N m % O m M i & O ",
"X ; i N M O % m M M M M M M M M M M M M M M M M M m % O M N i X ; i N M O % m M M M M M M M M M M M M M <.;.M M m % O M N i ; X ",
"o 2 i N M O % m M M N N N N N N N N N N N N N M M m % O M N i o 2 i N M O % m M M N N N N N N N N N N ;.e.i.;.M m % <.<.N i 2 o ",
"b l 8 i M O % m i i C C N C N N N N N N N N N i i m % O M i 8 b l 8 i M O % m i i C C N C N N N N N N ;.e.i.;.i m % ;.<.i 8 l b ",
"&.[ o y m O % i u u C C C C C C C C C C C C C u u i % O m y o &.[ o y m O % i u u C C C C C C C C C C C <.;.u u i % O m y o [ &.",
"&.[ o y M $ % i u u Z Z Z Z Z Z Z Z Z Z Z Z Z u u i % O M y o &.[ o y M O % i u u Z Z Z Z Z Z Z Z Z Z Z Z Z u u i % O M y o [ &.",
"&.[ o v =.O.y m u u Z Z Z Z Z Z Z Z Z Z Z Z Z u u m % O M p o &.[ o p M O % m u u Z Z Z Z Z Z Z Z Z Z Z Z Z u u m % O M p o [ &.",
"&.[ f O.9.a.>.M i i Z Z Z Z Z Z Z Z Z Z Z Z Z i i M % O M p o &.[ o p M O % M i i Z Z Z Z Z Z Z ;.Z Z Z Z Z i i M <.*.M p o [ &.",
"&.[ o v 6.a.O.Z M M S S S S S S S S S S S S S M M N % O M y o &.[ o y M O % N M M S S S S S S S <.S S S S S M M <.f.7.M y o [ &.",
"&.[ o y X.;.y M i i N N N N N N N N N N C N N i i M % O M y o &.[ o y M O % M i i N N N N N N N a.2.N C N N i i 2.a.0.;.y o [ &.",
"&.[ o p Z O $ 9 9 9 9 t 9 9 9 9 9 9 9 9 9 9 9 9 9 9 $ O M p o &.[ o p M O $ 9 9 9 9 9 9 9 9 9 6.v.h.;.9 9 9 9 9 9 <.*.M p o [ &.",
"%.] o p M O $ 9 9 c #.| s 9 9 9 9 9 9 9 9 9 9 9 9 9 $ O M p o %.] o p M O $ 9 9 9 9 9 9 *.<.i.l.v.v.h.6.;.9 9 9 9 $ O M p o ] %.",
"o 2 0 M M O O O - } 0.0...O O O O O O O O O O O O O O O M M 0 o 2 0 M M O O O O O O O O O O *.7.v.h.<.O O O O O O O O M M 0 2 o ",
"o 2 0 B @.=.O O O ;.i.e. .# O O O O O O O O O O O O O O M M 0 o 2 0 M M O O O O O O O O O O O O l.9.O O O O O O O O O M M 0 2 o ",
"O % w M -.<.H w e T :.<.E S S S S S S S G S S e e w m M C M w O % w M C M m w e e S S S S S G G 2.S S S S S i e w m M C M w % O ",
"O % w M U N M w a a Y G G G G G G G G G G G G a a w M M C M w O % w M C M M w a a G G G G G G G *.G G G G G a a w M M C M w % O ",
"O % 0 i M M i w a a Z Z Z Z Z Z Z Z Z Z Z Z Z a a w i M M i 0 O % 0 i M M i w a a Z Z Z Z Z Z S Z Z Z Z Z Z a a w i M M i 0 % O ",
"O % 0 i M a i w a a C C C C C C Z C C C Z C C a a w i a M i 0 O % 0 i M a i w a a C C C C C C Z C C C Z C C a a w i a M i 0 % O "
};
