/* XPM */
static char *a2943fef28be4cb3835cc34ae0ec676foNJMqq9wCjd7LHvU[] = {
/* columns rows colors chars-per-pixel */
"64 64 154 2 ",
"   c #3C271E",
".  c #3C281F",
"X  c #392924",
"o  c #362B29",
"O  c #3D2F2A",
"+  c #3E302B",
"@  c #2F3035",
"#  c #2B333C",
"$  c #303033",
"%  c #3E3534",
"&  c #373438",
"*  c #35383E",
"=  c #3E3B3D",
"-  c #442313",
";  c #492716",
":  c #4B2917",
">  c #40271C",
",  c #41281C",
"<  c #4E2B19",
"1  c #522E1A",
"2  c #56311D",
"3  c #5A331E",
"4  c #4C3123",
"5  c #4B352A",
"6  c #533426",
"7  c #5C3521",
"8  c #5F3823",
"9  c #513629",
"0  c #5E3B28",
"q  c #433632",
"w  c #413937",
"e  c #433D3D",
"r  c #493E3A",
"t  c #5B3E31",
"y  c #603721",
"u  c #643B24",
"i  c #693E26",
"p  c #633E29",
"a  c #6B3F29",
"s  c #4F423C",
"d  c #5D4435",
"f  c #57463F",
"g  c #5C453B",
"h  c #5F483C",
"j  c #6C4027",
"k  c #62412E",
"l  c #6D422B",
"z  c #72452C",
"x  c #76492D",
"c  c #7B4B2E",
"v  c #654635",
"b  c #6B4632",
"n  c #674836",
"m  c #634639",
"M  c #64493A",
"N  c #6A4D3E",
"B  c #744730",
"V  c #784730",
"C  c #754A32",
"Z  c #7D4D32",
"A  c #714C38",
"S  c #7A4F38",
"D  c #7F5031",
"F  c #76523D",
"G  c #7C5239",
"H  c #343F4A",
"J  c #383F48",
"K  c #3E4147",
"L  c #3F444C",
"P  c #444245",
"I  c #4B4A4E",
"U  c #554741",
"Y  c #544D4C",
"T  c #5F514C",
"R  c #414B55",
"E  c #4B4D52",
"W  c #434E5A",
"Q  c #4C5057",
"!  c #4B525C",
"~  c #555457",
"^  c #5C5352",
"/  c #54555B",
"(  c #53585F",
")  c #6A5346",
"_  c #705343",
"`  c #4C5763",
"'  c #4E5965",
"]  c #535B66",
"[  c #595B62",
"{  c #555E69",
"}  c #55606C",
"|  c #5A626C",
" . c #5A6571",
".. c #61656D",
"X. c #666C76",
"o. c #626D7A",
"O. c #6C747E",
"+. c #814E32",
"@. c #845233",
"#. c #825134",
"$. c #865234",
"%. c #875335",
"&. c #835434",
"*. c #865536",
"=. c #865737",
"-. c #895336",
";. c #895435",
":. c #8A5536",
">. c #8D5737",
",. c #8A5937",
"<. c #8D5936",
"1. c #835338",
"2. c #82553A",
"3. c #855538",
"4. c #8B5638",
"5. c #8D5738",
"6. c #895938",
"7. c #8B5B3A",
"8. c #8E5839",
"9. c #8E5B3B",
"0. c #905737",
"q. c #915A37",
"w. c #91573A",
"e. c #905A3B",
"r. c #935C39",
"t. c #945D39",
"y. c #945C3A",
"u. c #905B3C",
"i. c #9A5E3C",
"p. c #97603E",
"a. c #9B613D",
"s. c #9C6442",
"d. c #9B6644",
"f. c #9F6846",
"g. c #A16542",
"h. c #A56A46",
"j. c #A66D49",
"k. c #A96F49",
"l. c #AB724D",
"z. c #AD724D",
"x. c #AF744F",
"c. c #B0754F",
"v. c #B17650",
"b. c #6D7782",
"n. c #717984",
"m. c #747E8B",
"M. c #76818E",
"N. c #78818D",
"B. c #788390",
"V. c #7F8A97",
"C. c #828D9B",
"Z. c #85909D",
"A. c #8D98A6",
"S. c #949FAD",
/* pixels */
"- - - - - - - - - - - - - - - - - - - - - - - - - - - - - - - - - - - - - - - - - - - - - - - - - - - - - - - - - - - - - - - - ",
"- - : 1 7 y 7 7 7 7 7 7 7 3 2 7 7 u u u u u u u u u 7 7 2 7 7 u u u u u u u i u y u y u u i i i i i i i i u y u u u u 7 7 1 ; - ",
"- - 1 i c +.Z x x c Z Z c Z Z Z Z #.#.;.5.5.5.5.5.5.5.5.5.5.4.+.$.$.$.-.;.;.4.*.*.&.*.*.*.;.;.<.>.;.4.4.4.*.*.*.$.#.Z Z z u < - ",
"- - 2 j +.$.+.Z Z D #.#.#.#.#.#.#.@.$.>.5.5.5.5.5.5.5.5.5.5.5.$.;.;.>.5.8.8.e.8.6.6.6.6.6.8.e.y.y.y.e.e.y.8.8.;.$.#.#.#.x y 1 - ",
"- - 2 j @.$.+.Z c $.;.;.;.;.;.;.$.;.;.>.>.>.>.>.>.>.>.>.;.;.;.@.-.;.;.5.8.e.u.8.8.6.6.,.*.,.e.y.y.y.y.y.y.y.e.;.#.Z D #.c i 1 - ",
"X X 9 l $.;.#.Z c c #.+.+.@.@.@.c c c c c c c c c c c c c c c j j z z z z x x z z z z l j z z x x x x x x c c c Z Z Z #.c u 1 - ",
"@ @ r n 1.;.@.D x i 3 < < : : : < < < - - - - - - - - - - - - < < < < < < < < < < < < < < < < 1 1 1 1 1 1 1 3 i x Z Z D x u 1 - ",
"` ` ~ T N A S Z x u 1 - 1 7 i i i i i 2 1 1 1 1 1 1 1 1 1 1 1 i i i i i i i i i i i i i i i i i i i i 7 1 - < u x Z Z D x u 1 - ",
"V.V.O.[ P r d C x u 1 : i #.d.d.d.d.d.l.v.v.v.v.v.x.x.x.c.v.x.d.d.d.d.d.d.d.d.d.d.d.d.d.f.s.s.s.d.d.d.3.j < < u x Z Z Z x y < - ",
"S.S.M.} H = g C c u 1 : i *.h.h.j.j.j.z.x.x.x.x.x.z.z.z.z.x.x.j.j.j.j.j.j.j.j.j.j.j.j.j.j.j.j.k.k.k.k.u.l < < y x Z Z Z x y < - ",
"S.S.M.} H = g S c i 1 ; y x >.8.y.y.y.>.;.;.;.;.;.;.-.-.;.;.;.y.y.y.y.u.y.y.y.u.u.y.8.8.8.y.p.p.p.p.a.$.i < < y B D Z Z z u < - ",
"S.S.M.} H = g G +.i 1 ; 3 z +.@.;.5.5.;.;.;.;.;.;.-.-.-.;.;.;.>.5.5.>.;.>.>.>.;.;.*.*.&.#.;.<.e.y.y.y.+.u : < y x D Z Z z u < - ",
"S.S.M.} H = h G #.j 1 ; 3 z @.-.>.8.8.8.8.8.8.8.8.8.8.8.8.8.8.8.8.8.8.8.5.5.5.;.;.*.*.#.#.&.<.q.y.y.y.+.u : 1 u x Z Z Z x u < - ",
"S.S.M.} H = h 2.$.j 2 ; 7 z -.;.5.8.8.8.8.8.8.8.8.8.8.8.8.8.8.5.8.8.8.8.8.8.5.;.;.*.*.#.#.&.<.q.y.y.y.+.i : 1 u c #.D c x u 1 - ",
"S.S.M.} H = M 2.@.j 2 ; 7 z -.-.;.;.;.>.>.>.>.>.>.;.;.;.;.>.>.;.;.>.5.5.8.8.8.<.,.*.*.&.#.;.<.q.y.y.y.#.i : 1 u c #.#.#.x u 1 - ",
"C.C.b.] K r M 2.@.j 2 ; 7 z $.$.$.-.-.;.>.>.>.>.>.>.;.;.;.>.>.-.-.;.;.5.8.e.e.8.,.*.*.*.*.,.<.y.y.y.p.@.i : 1 u c @.#.D x u 1 - ",
"] ] / Y g v S 4.$.j 2 ; 3 j Z +.@.-.-.>.5.5.5.5.5.5.;.>.5.5.5.$.-.;.>.5.e.e.y.8.,.;.;.;.*.,.8.8.y.y.i.#.i : 1 u c @.+.Z z u < - ",
"@ @ w d B Z $.8.$.j 2 - 3 j Z Z +.$.-.>.5.5.5.5.5.5.;.>.5.5.5.@.$.;.;.5.e.y.y.e.<.,.,.;.*.6.6.8.8.y.y.#.i : 1 u c +.Z Z z u < - ",
"X X 5 p x #.;.e.-.z 2 - 2 i x Z Z #.$.;.;.;.;.;.;.-.-.-.-.;.;.+.#.$.;.>.q.w.w.q.;.*.*.*.*.*.6.6.8.y.p.@.i : 1 u c #.Z Z x y < - ",
"- - 1 i c @.>.w.;.z 2 - 2 i x Z Z Z #.-.-.-.-.-.-.-.$.-.-.-.-.Z D #.$.;.>.q.w.q.;.&.#.#.#.*.,.6.y.y.p.@.i < 1 u c #.D Z x y < - ",
"- - 1 i c @.>.w.;.z 2 - 3 i c Z Z +.@.-.;.;.;.;.;.-.-.-.-.;.;.+.#.$.-.;.>.e.e.5.;.#.#.#.#.&.,.8.y.p.a.*.i : 1 u c #.#.#.c u 1 - ",
"- - 1 u c @.;.w.-.z 1 ; 3 i V V +.@.@.-.;.;.;.;.;.-.-.-.-.;.;.+.@.$.-.;.5.8.e.4.*.#.#.#.#.;.<.r.y.p.s.;.j < 1 u c #.#.@.c u 1 - ",
"- - 1 u x D $.5.-.a 1 ; 3 a Z +.$.-.;.;.>.>.>.>.>.;.;.;.;.;.;.$.;.;.;.>.8.e.e.8.*.#.#.*.*.;.<.r.p.p.a.*.i < 1 u c #.#.#.c u 1 - ",
"- - < 8 l Z #.4.$.j 1 - 3 j Z #.$.5.5.5.5.5.5.5.5.>.;.>.5.5.5.;.5.5.5.5.e.e.e.<.;.&.*.*.,.<.q.y.y.p.a.*.i : 1 u c #.#.+.Z u 1 - ",
"- - 1 u x D *.e.-.j 2 - 2 i B Z Z Z Z +.Z Z Z Z Z Z Z Z Z Z Z Z Z Z Z +.+.#.#.Z Z Z Z Z Z Z +.#.$.*.*.x u : 1 u x #.#.$.Z u 1 - ",
"- - 1 u c @.>.w.;.z 2 - 2 y l l l l z z l l l l l l l l l l l l z z z z z z z z l l l l l l z z z z z p 7 ; 1 u x #.#.@.c i 1 - ",
"- - 2 i c *.>.e.-.z 2 - < 2 7 7 7 7 7 8 8 8 8 8 8 8 8 8 8 8 8 7 7 7 7 7 7 7 7 7 7 7 7 7 7 7 7 7 7 7 7 2 < - 1 i c @.@.$.c u 1 - ",
"- - 2 j #.,.8.8.$.j 2 - - - ; - - - - - - - - - - - - - - - - - - - - - - - - - ; ; - - - - - - - - - - - - 1 i +.;.$.+.V u 1 - ",
"- - 2 j #.;.8.8.$.x i 7 3 3 3 7 7 y u 3 2 2 2 2 2 2 2 2 2 2 2 u u u 7 7 y u u 8 7 3 7 3 3 8 8 u u u u u u u p k v M m m t 6 : - ",
"- - 2 j @.;.>.5.;.#.Z x c c c Z #.$.$.-.;.;.;.;.;.;.;.;.;.;.;.$.$.$.+.+.@.$.*.#.Z c c c c Z #.&.&.;.;.>.>.<.G g e * * * & O > - ",
"- - 2 j @.>.>.>.;.$.#.+.+.+.+.$.5.e.8.;.;.;.;.;.;.;.;.;.;.;.;.8.8.5.;.;.8.e.y.8.*.#.#.#.#.&.;.,.<.y.y.8.2.F ) ^ ( ' ' ' ! P % X ",
"- - 3 j $.5.>.>.;.-.@.#.#.+.Z $.4.8.8.;.;.;.;.;.;.;.;.;.;.;.;.5.8.5.;.;.<.e.y.<.;.#.#.#.D #.&.*.,.<.y.G M e E ..N.C.C.C.m.| L @ ",
"- - 3 j $.5.5.5.>.;.-.@.$.#.Z $.-.5.>.;.;.;.;.;.;.;.;.;.;.;.;.4.5.;.;.;.>.w.y.q.;.&.#.#.c #.&.*.,.8.y.G f * R o.Z.S.S.S.Z.o.R # ",
"- - 3 j $.5.8.8.8.>.;.-.$.$.+.$.-.;.;.$.@.@.@.@.@.@.@.@.@.@.@.;.;.;.-.-.>.w.i.e.>.*.#.#.c #.&.*.8.y.y.G f * R o.Z.S.S.S.Z.o.R # ",
"- - 2 j $.5.8.8.8.>.;.;.-.$.$.$.-.;.-.$.@.@.@.@.@.$.@.@.@.@.@.-.;.-.-.;.0.w.i.e.<.*.@.#.D #.*.,.8.y.p.2.N s Y ..n.B.B.B.b.] K $ ",
"- - 2 j @.>.<.e.q.<.>.;.-.-.$.-.-.-.;.>.5.5.5.5.5.5.5.5.5.5.5.-.;.;.;.>.e.i.i.w.<.*.@.#.D #.*.6.8.y.p.y.6.G _ T Q W W W R e +   ",
"- - 2 j #.>.<.q.q.$.+.c c c c c c c c ;.5.5.5.5.5.5.5.5.5.5.>.c c c c Z +.@.-.+.c x x z z x x Z Z #.@.@.@.@.S d r = = = % O , - ",
"- - 2 j Z ;.<.y.>.c i 3 3 3 3 3 3 3 3 < ; ; ; ; ; : ; ; ; ; : 3 3 3 3 3 3 3 7 3 3 2 2 2 2 2 2 3 3 3 3 3 3 3 8 k v n v v t 6 : - ",
"- - 2 j Z ;.<.y.;.z 1 - : 1 2 2 2 2 2 ; - - - - - - - - - - - 2 2 2 2 2 2 2 2 2 2 2 2 2 2 2 2 2 2 2 2 1 : - 1 u c #.Z V x u < - ",
"- - 2 j Z ;.<.w.>.z 1 ; u x 8.8.8.8.8.s.f.f.f.f.g.f.f.f.f.f.f.8.8.8.8.8.8.8.8.8.8.8.8.8.8.8.8.8.8.8.8.Z u : 1 u x Z Z c z u < - ",
"- - 2 i Z ;.>.w.;.z 1 : j 8.l.l.l.z.z.c.v.v.v.v.v.x.x.x.v.v.v.z.z.z.z.z.z.z.c.z.l.l.l.l.l.l.z.z.z.z.z.u.z < 1 u x c c c x u < - ",
"- - 2 i Z *.>.e.-.z 1 ; y Z u.y.p.s.s.p.y.y.y.y.y.y.y.y.y.y.y.s.s.s.s.s.g.h.h.g.s.u.u.y.y.p.s.s.s.s.s.;.j < 1 u x D Z Z x u < - ",
"- - 2 i Z *.;.w.+.i 1 ; 3 a +.+.$.;.>.>.5.5.5.5.5.5.;.>.5.5.5.;.>.>.>.8.y.a.g.y.4.Z #.#.@.;.>.8.e.e.y.+.u : 1 u c #.Z Z z y < - ",
"- - 2 i c @.;.>.+.i 1 ; 7 z +.$.-.;.;.-.-.-.-.-.-.-.$.$.$.-.-.;.;.;.;.;.e.i.g.y.;.#.#.#.@.*.;.8.8.e.e.Z u : 1 i c @.#.Z x y < - ",
"- - 2 i c @.$.-.Z i 1 ; 7 z +.$.-.;.;.@.@.@.@.@.@.@.@.@.@.@.@.;.;.-.@.-.q.i.i.y.;.#.#.#.#.*.;.5.8.8.e.Z u : 1 i +.;.$.D x y < - ",
"- - 2 i Z #.$.$.V i 1 ; 7 j +.$.$.;.$.#.#.#.#.#.#.#.Z +.#.#.#.-.;.@.@.@.>.w.a.y.>.*.&.#.#.*.;.>.5.8.8.Z u : 1 i +.;.$.#.x u < - ",
"- - 1 i B Z #.@.c i 1 ; 7 j +.+.$.;.$.#.c D c c c c c c c c c -.-.@.#.#.>.w.i.w.<.&.&.#.#.$.;.>.5.8.8.Z u : 1 i +.;.@.#.x u 1 - ",
"o o 5 k B #.$.$.Z i 1 ; 7 j +.+.@.@.@.@.@.@.#.#.#.#.#.#.#.#.#.@.@.@.@.@.>.i.a.w.;.#.#.#.#.@.*.6.8.8.8.Z y : 1 i +.$.#.c z u < - ",
"# # e g S #.$.;.+.i 1 ; 7 z +.#.#.#.#.-.-.-.-.-.-.-.$.-.-.-.-.#.#.@.$.;.e.i.a.w.;.c c D D &.*.6.6.6.6.Z u : 1 i c @.Z c j 7 < - ",
" . .[ ^ f m A #.+.i 1 ; 7 j +.Z Z Z #.;.;.;.;.;.;.;.;.;.;.;.;.Z #.$.;.>.w.i.a.e.;.c c D D &.;.<.<.<.8.Z i : 1 i c #.Z c j 7 < - ",
"A.A.m.{ J e g S Z i 1 ; 3 a V V Z Z #.;.5.5.5.5.5.5.;.>.5.5.5.Z Z #.;.8.w.i.i.e.;.c c D D &.;.q.q.q.y.+.u : 1 u x Z Z c l 8 < - ",
"S.S.M.} H = g S +.i 1 ; 3 a Z Z Z Z #.5.8.8.8.8.8.5.5.5.5.8.5.Z Z #.;.8.y.i.a.e.;.#.#.D D &.;.<.q.r.y.+.i : 1 u x Z Z Z z u < - ",
"S.S.M.} H = g G +.i 1 ; 7 z +.+.Z Z D 8.8.8.8.8.8.8.8.8.8.8.8.Z Z #.4.e.y.p.a.y.,.#.#.#.D &.*.6.8.y.y.#.i : 1 u x Z Z +.B y 1 - ",
"S.S.M.} H = g G +.i 1 ; 7 z $.#.+.Z #.8.8.8.8.8.8.8.8.8.8.8.8.Z D $.6.e.y.p.p.y.8.*.*.#.#.&.*.6.8.y.y.#.i : 1 u x Z +.+.Z u 1 - ",
"S.S.M.} H = g G +.i 1 ; 7 x -.$.#.#.$.8.e.e.e.e.e.8.8.8.8.u.8.#.#.*.8.e.y.p.p.y.8.6.*.*.#.*.,.6.8.y.y.+.u : 1 u x Z +.+.V u 1 - ",
"S.S.M.} H = g G +.i 1 ; 3 j +.Z Z Z Z 4.4.4.4.4.4.4.4.4.4.4.4.Z Z Z $.$.;.4.5.;.*.#.D Z Z D D #.*.*.;.c u : < u x Z +.+.Z u 1 - ",
"S.S.M.} H = g G +.i 1 - 2 i z z z z z l l l l l l l l l l l l z z z B B B B B B B B B z z z B B B x B a 7 ; < u z Z Z +.Z u 1 - ",
"M.M.X./ P s M G +.i 1 - < 7 y y y y y a l l l l l l j j l l l y y y y y y y y y y y y y y y y y y y y 7 1 - < y z Z Z +.Z u 1 - ",
"W W I U d b S $.+.i 1 - - : < < < < < - - - - - - - - - - - - < < < < < < < < < < < < < < < < < < < < : - - < u z Z Z +.V u 1 - ",
"@ @ q t l c +.$.+.z y 1 1 1 1 1 1 1 1 ; - - - - - - - - - - - 1 1 2 2 3 3 2 2 2 1 2 2 2 1 1 1 1 2 2 2 2 2 2 7 j x Z Z +.V u 1 - ",
". . 4 0 z Z +.-.-.+.c z j j i j j l z <.y.y.y.y.y.y.y.y.y.y.e.j z x c +.c c c c x z z z z z z z x c c c c c c c Z Z +.+.Z u 1 - ",
"- - 1 u z Z +.$.;.-.@.#.Z c x c Z D @.y.i.i.i.i.i.i.y.y.y.y.y.Z #.;.e.y.e.q.q.;.*.#.#.#.#.#.@.*.;.>.<.q.<.<.;.&.#.D +.+.c u 1 - ",
"- - 1 u z x Z #.@.#.#.#.c c x c Z D @.>.8.8.8.8.8.8.8.8.8.8.>.Z #.*.>.e.>.>.;.;.*.&.#.#.D #.$.;.;.>.<.<.<.;.*.@.#.Z Z Z x u 1 - ",
"- - 1 u j x Z Z #.#.#.D c c x x z x c ;.5.5.5.5.5.5.5.5.5.5.;.x x c Z +.Z c c c c Z c x x x Z Z +.+.+.Z Z Z c x x x x x j 3 < - "
};
