/* XPM */
static char *_5a314e76b054e28a7de77b44487ed2f7v3jq4kUwZvIrrHT[] = {
/* columns rows colors chars-per-pixel */
"64 64 148 2 ",
"   c #3D271D",
".  c #3B2820",
"X  c #362B29",
"o  c #29343F",
"O  c #432313",
"+  c #492716",
"@  c #4B2817",
"#  c #462718",
"$  c #4E2C1A",
"%  c #522E1B",
"&  c #56301D",
"*  c #59331E",
"=  c #4F3224",
"-  c #4D362D",
";  c #563625",
":  c #5D3520",
">  c #5F3824",
",  c #54392C",
"<  c #433C3A",
"1  c #493F3D",
"2  c #603722",
"3  c #603822",
"4  c #643E2A",
"5  c #5C4539",
"6  c #6D422D",
"7  c #73452B",
"8  c #79472C",
"9  c #76492E",
"0  c #7C4D2F",
"q  c #654634",
"w  c #6E4430",
"e  c #6D4B39",
"r  c #764A32",
"t  c #7D4D32",
"y  c #714E3A",
"u  c #7F5031",
"i  c #76503E",
"p  c #7D523B",
"a  c #323C47",
"s  c #37424D",
"d  c #4F4746",
"f  c #4B494A",
"g  c #404B56",
"h  c #56565B",
"j  c #715241",
"k  c #7C5B4B",
"l  c #7C6254",
"z  c #545F6C",
"x  c #814D2F",
"c  c #824E34",
"v  c #845133",
"b  c #8A5435",
"n  c #885837",
"m  c #81533A",
"M  c #8D5738",
"N  c #8F593A",
"B  c #925637",
"V  c #935B37",
"C  c #915638",
"Z  c #945C3A",
"A  c #9A5D3A",
"S  c #94603F",
"D  c #865740",
"F  c #855C42",
"G  c #8D5D42",
"H  c #915E41",
"J  c #8F6045",
"K  c #8D624A",
"L  c #906247",
"P  c #9F6846",
"I  c #93644A",
"U  c #9C6649",
"Y  c #8A6954",
"T  c #906750",
"R  c #936B53",
"E  c #9B6B50",
"W  c #946E58",
"Q  c #8F705C",
"!  c #9A745D",
"~  c #AF744F",
"^  c #B17650",
"/  c #8C7264",
"(  c #9D7D68",
")  c #6E7985",
"_  c #727D89",
"`  c #928A86",
"'  c #958D88",
"]  c #9F928C",
"[  c #9D9794",
"{  c #9D9997",
"}  c #A2958E",
"|  c #AC998F",
" . c #A29994",
".. c #A99A92",
"X. c #A59D98",
"o. c #A99F9A",
"O. c #AFA097",
"+. c #A5A09D",
"@. c #AAA29D",
"#. c #BBA89D",
"$. c #8E99A6",
"%. c #949FAD",
"&. c #A6A6A5",
"*. c #A8A5A3",
"=. c #AFAAA7",
"-. c #ACACAB",
";. c #B3AAA5",
":. c #B3B0AF",
">. c #B3B3B3",
",. c #B9B7B5",
"<. c #BCBCBC",
"1. c #C5B7AF",
"2. c #C1BBB7",
"3. c #C6C4C3",
"4. c #CAC7C5",
"5. c #CFC9C5",
"6. c #CCCCCC",
"7. c #D3D0CE",
"8. c #DAD0CB",
"9. c #D2D2D2",
"0. c #D5D5D5",
"q. c #D7D6D6",
"w. c #D4D4D4",
"e. c #D8D8D8",
"r. c gainsboro",
"t. c #DDDDDD",
"y. c #DFDFDF",
"u. c #DBDBDB",
"i. c gray88",
"p. c #E2E2E2",
"a. c gray89",
"s. c #E4E4E4",
"d. c gray90",
"f. c #E7E7E7",
"g. c #E5E5E5",
"h. c #E9E9E9",
"j. c #EEEEEE",
"k. c #EFEFEF",
"l. c #ECECEC",
"z. c #EAEAEA",
"x. c gray96",
"c. c gray97",
"v. c #F1F1F1",
"b. c gray98",
"n. c #FBFBFB",
"m. c #FDFDFD",
"M. c #FEFEFE",
"N. c white",
/* pixels */
"O O O O O O O O O O O O O O O O O O O O O O O O O O O O O O O O O O O O O O O O O O O O O O O O O O O O O O O O O O O O O O O O ",
"O @ : * & * * % : : 2 3 3 3 * * & & % % : 3 2 : : % * * & * : O @ : * & * * % : : 2 3 3 3 * * & & % % : 3 2 : : % * * & * : @ O ",
"O * b t r u u t v v M M M M M M M M M M M M M v v t u u r t b O * b t r u u t v v M M M M M M M M M M M M M v v t u u r t b * O ",
"O * b t r v v v v v M M M M M M M M M M M M M v v v v v r t b O * b t r v v v v v M M M M M M M M M M M M M v v v v v r t b * O ",
"O * M t 0 b b b b b M M M M M M M M M M M M M b b b b b 0 t M O * M t 0 b b b b b M M M M M M M M M M M M M b b b b b 0 t M * O ",
"  ; M t 0 v v v c c 0 0 0 0 0 0 0 0 0 0 0 0 0 c c v v v 0 t M   ; M t 0 v v v c c 0 0 0 0 0 0 0 0 0 0 0 0 ,.-.c v v v 0 t M ;   ",
"o 1 M v 9 O O O O O O O O O O O O O O O O O O O O O O O 9 v M o 1 M v 9 O O O O O O O O O O O O O O O O -.t.p.-.O O O >.>.M 1 o ",
"s d m t 9 O O % % % % % % % % % % % % % % % % % % % O O 9 t m s d m t 9 O O % % % % % % % % % % % % % % -.t.p.-.% O O -.>.m d s ",
"%._ o q 0 O 2 ^ ^ ^ ^ ^ ^ ^ ^ ^ ^ ^ ^ ^ ^ ^ ^ ^ ^ ^ 2 O 0 q o %._ o q 0 O 2 ^ ^ ^ ^ ^ ^ ^ ^ ^ ^ ^ ^ ^ ^ ^ ,.-.^ ^ 2 O 0 q o _ %.",
"%._ o q 0 O 4 ~ ~ ~ ~ ~ ~ ~ ~ ~ ~ ~ ~ ~ ~ ~ ~ ~ ~ ~ : O 0 q o %._ o q 0 O : ~ ~ ~ ~ ~ ~ ~ ~ ~ ~ ~ ~ ~ ~ ~ ~ ~ ~ ~ : O 0 q o _ %.",
"%._ o e K +. .K M M b b b b b b b b b b b b b M M x % O v e o %._ o e v O % x M M b b b b b b b b b b b b b M M x % O v e o _ %.",
"%._ o j  .9.d.>.M M b b b b b b b b b b b b b M M x % O v e o %._ o e v O % x M M b b b b b b b b -.b b b b M M x % >.&.e o _ %.",
"%._ o y R 3.d.@.H V N N N N N N N N N N N N N V N b % O M y o %._ o y M O % b N V N N N N N N N N ,.N N N N V N b >.h.6.y o _ %.",
"%._ o y M ` -.T V V N N N N N N N N N N N N N V V b % O M y o %._ o y M O % b V V N N N N N N N N d.<.N N N V V b <.d.0.-.o _ %.",
"%._ o y M $ % b b b M M N M M M M M M M M M M b b b % O M y o %._ o y M O % b b b M M M M M M M 4.M.j.-.M M b b b % ,.&.y o _ %.",
"%._ o y M O % b b b R @.| L M M M M M M M M M b b b % O M y o %._ o y M O % b b b M M M M &.>.p.x.M.M.j.4.-.b b b % O M y o _ %.",
"g f q v M O % t v G ..e.0.+.M M M M M M M M M b v t % O M v q g f q v M O % t v b M M M M M M &.6.M.j.,.M M b v t % O M v q f g ",
"o < 9 n G [ *.r v n -.p.t.o.N M M M M M M M M b v r % O n n 9 o < 9 n n O % r v b M M M M M M M M x.9.M M M b v r % O n n 9 < o ",
". = 0 V B *.>.p v v W ;.,.I b b b b b b b b b v v 9 % O B V 0 . = 0 V B O % 8 v v b b b b b b b b <.b b b b v v 9 % O B V 0 = . ",
"O & 0 C B , ; 9 t t b G n b b b b b b b b b b t t 9 % O B V 0 O & 0 V B O % 9 t t b b b b b b b b &.b b b b t t 9 % O B V 0 & O ",
"O & 0 M C O % 8 c v b b b b b b b b b b b b b v c 8 % O C M 0 O & 0 M C O % 8 c v b b b b b b b b b b b b b v c 8 % O C M 0 & O ",
"O & 0 M M O % t v v b b b b b b b b b b b b b v v t % O M M 0 O & 0 M M O % t v v b b b b b b b b b b b b b v v t % O M M 0 & O ",
"O & 9 b M O % r b b M M M M M M M M M M M M M b b r % O M b 9 O & 9 b M O % r b b M M M M M M M M M M M M M b b r % O M b 9 & O ",
"O % 9 v b O % r M M M M M M M M M M M M M M M M M r % O b v 9 O % 9 v b O % r M M M M M M M M M M M M M M M M M r % O b v 9 % O ",
"O & 9 M M O % r t t t t t t t t t t t t t t c t t r % O M M 9 O & 9 M M O % r t t t t t t t t t t t t t t c t t r % O M M 9 & O ",
"O & 0 V B O $ 6 6 6 6 6 6 6 6 6 6 6 6 6 6 6 6 6 6 6 $ O B V 0 O & 0 V B O $ 6 6 6 6 6 6 6 6 6 6 6 6 6 6 6 6 6 6 6 $ O B V 0 & O ",
"O & v V B O O > > > > > > > 3 > > > > > 3 > > > > 3 @ O B M v O & v V B O O > > > > > > > 3 > > > > > 3 > > > > 3 @ O B M v & O ",
"O * n V M O O O O O O O O O O O O O O O O O O O O O O O M V n O * n V M O O O O O O O O O O O O O O O O O O O O O O O M V n * O ",
"O * b N b % % % & & & & & & & & & & & & & & & & & % % % b N b O * b N b % % % & & & & & & & & & & & & & & & & & % % % b N b * O ",
"O * b M M t t c V Z b b b b b b b b b b b b b Z V c t t M M b O * b M M t t c V Z b b b b b b b b b b b b b Z V c t t M M b * O ",
"O * b M M t t c V Z b b b b b b b b b b b b b Z V c t t M M b O * b M M t t c V Z b b b b b b b b b b b b b Z V c t t M M b * O ",
"O : M M M v v t N N b b b b b b b b b b b b b N N t v v M M M O : M M M v v t N N b b b b b b b b b b b b b N N t v v M M M : O ",
"O : M M M v v t N N b b b b b b b b b b b b b N N t v v M M M O : M N M v v t N N b b b b b b b b b b b b b N N t v v M M M : O ",
"O : M N N b b c b b v v v v v v v v v v v v v b b c b b N N M O : M N N b b c b b v v v v v v v v v v v v v b b c b b N N M : O ",
"O : M N N b b c b b v v v v v v v v v v v v v b b c b b N N M O : M N N b b c b b v v v v v v v v v v v v v b b c b b N N M : O ",
"O * b C C b b b b b M M M M M M M M M M M M M b b b b b C C b O * b C C b b b b b M M M M M M M M M M M M M b b b b b C C b * O ",
"O * b C C b b b b b M M M M M M M M M M M M M b b b b b C C b O * b C C b b b b b M M M M M M M M M M M M M b b b b b C C b * O ",
"O * v V B + @ + + + + + + + + + + + + + + + + + + + + + B V v O * v V B + + + + + + + + + + + + + + + + + + + + + + + B V v * O ",
"O * v V B O O O O O O O O O O O O O O O O O O O O O O O B V v O * v V B O O O O O O O O O O O O O O O O O O O O O O O B V v * O ",
"O * v V B O : P P P P P P P P P P P P P P P P P P P : O B V v O * v A B O : P P P P P P P P P P P P P P P P P P P : O B V v * O ",
"O * v V B O 2 ^ ^ ^ ^ ^ ^ ^ ^ ^ ^ ^ ^ ^ ^ ^ ^ ^ ^ ^ 2 O B V v O * v V B O 2 ^ ^ ^ ^ ^ ^ ^ ^ ^ ^ ^ ^ ^ ^ ^ ^ ^ ^ ^ 2 O B V v * O ",
"O * v M M O % n Z Z Z Z Z Z Z Z Z Z Z Z Z Z S Z Z n % O M M v O * v M M O % n Z Z Z Z Z Z Z Z Z Z Z Z Z Z Z S Z n % O M M v * O ",
"O * v M b O % t b M M M M N M M M M M M M M N M b t % O b M v O * v M b O % t b M M M M M N M M M M M M M M M b t % O b M v * O ",
"O * v b v O % c b b b b b b b b b b b b b b b b b c % O v b v O * v b v O % c b b b b b b b b b b b b b b b b b c % O v b v * O ",
"O & v b v O % c b b v v v v v v v v v v v v v b b c % O v b v O & v b v O % c b b v v v v v v v v v v v v v b b c % O v b v & O ",
"O & u b c O % c b b v v F Q v v v v v v v v v b b c % O c b u O & u b c O % c b b v v v v v v v v v v v v v b b c % O c b u & O ",
"O & t v c O % c b b 0 0 F @.0 0 0 0 0 0 0 0 0 b b c % O c v t O & t v c O % c b b 0 0 0 0 0 0 0 0 0 0 0 0 0 b b c % O c v t & O ",
"X - t b v O % c v v v v ( 0.n v v v v v v v v v v c % O v b t X - t b v O % c v v v v v v v v v v v v v ,.-.v v c % O v b t - X ",
"o < t b v O % c v v b J 5.x.1.o.T K N b b b b v v c % O v b t o < t b v O % c v v b b b b b b b b b b -.t.p.-.v c % >.>.b t < o ",
"z h 5 t v O % c t t M O.p.n.v.p.3.X.R b b b b t t c % O v t 5 z h 5 t v O % c t t M n b M b b b b b b -.t.p.-.t c % -.>.t 5 h z ",
"%._ o e c O % t r / ,.7.h.n.j.#.N M M M M M M r r t % O c e o %._ o e c O % t r r M M M M M M M M M M M ,.-.r r t % O c e o _ %.",
"%._ o e v $ % t r p H ! ;.t.8.E N N N N N N N r r t % O v e o %._ o e v O % t r r N N N N N N N N N N N N N r r t % O v e o _ %.",
"%._ o l *. .e c r r N N I | 2.N N N N N N N N r r c % O v y o %._ o y v O % c r r N N V N N N N N N N N N N r r c % O v y o _ %.",
"%._ a  .9.d.:.v t t N N N N -.H N N N N N N N t t v % O v y o %._ o y v O % v t t N V V N N N N N N N N N N t t v >.&.v y o _ %.",
"%._ o l 4.d. .N v v V V V V ! S V V V V V V V v v b % O v e o %._ o e v O % b v v V V V V V V V V V V V V V v v >.h.6.v e o _ %.",
"%._ o e } -.e v t t n M n n n n n n n n M n n t t v % O v e o %._ o e v O % v t t n n n n n n n n n n M n n t t <.d.0.-.e o _ %.",
"%._ o y N O $ 6 6 6 6 w 6 6 6 6 6 6 6 6 6 6 6 6 6 6 $ O v y o %._ o y v O $ 6 6 6 6 6 6 6 6 6 6 6 6 6 6 6 6 6 6 6 ,.&.v y o _ %.",
"$.) o y v O $ 6 6 k +.] i 6 6 6 6 6 6 6 6 6 6 6 6 6 $ O v y o $.) o y v O $ 6 6 6 6 6 6 6 6 6 6 6 6 6 6 6 6 6 6 6 $ O v y o ) $.",
"o < 7 v v O O O = ' e.0.{ O O O O O O O O O O O O O O O v v 7 o < 7 v v O O O O O O O O O O O O O O O O O O O O O O O v v 7 < o ",
"o < 7 n o.*.O O O -.p.t.[ # O O O O O O O O O O O O O O v v 7 o < 7 v v O O O O O O O O O O O O O O O O O O O O O O O v v 7 < o ",
"O % 9 v =.>.D 9 0 Y ;.,.E V V V V V V V A V V 0 0 9 c v M v 9 O % 9 v M v c 9 0 0 V V V V V A A V V V V A V 0 0 9 c v M v 9 % O ",
"O % 9 v I n v 9 u u U A A A A A A A A A A A A u u 9 v v M v 9 O % 9 v M v v 9 u u A A A A A A A A A A A A A u u 9 v v M v 9 % O ",
"O % 7 t v v t 9 u u N N N N N N N N N N N N N u u 9 t v v t 7 O % 7 t v v t 9 u u N N N N N N V N N N N N N u u 9 t v v t 7 % O ",
"O % 7 t v u t 9 u u M M M M M M N M M M N M M u u 9 t u v t 7 O % 7 t v u t 9 u u M M M M M M N M M M N M M u u 9 t u v t 7 % O "
};
