/* XPM */
static char *bbfba041942c4fd793d4fe3c63bd1dd4ufx3g2mpsBgYTrb5[] = {
/* columns rows colors chars-per-pixel */
"64 64 152 2 ",
"   c None",
".  c #3F261B",
"X  c #3D281F",
"o  c #392A25",
"O  c #352D2C",
"+  c #3B2E2A",
"@  c #3D312D",
"#  c #302F33",
"$  c #2E3137",
"%  c #2A333D",
"&  c #323134",
"*  c #3C3535",
"=  c #333439",
"-  c #432313",
";  c #492716",
":  c #4B2917",
">  c #422619",
",  c #42291D",
"<  c #4E2B18",
"1  c #502C17",
"2  c #522E1A",
"3  c #56311C",
"4  c #5B341E",
"5  c #5D381F",
"6  c #452E23",
"7  c #4A2F22",
"8  c #4D3123",
"9  c #45342C",
"0  c #4C362B",
"q  c #4E382D",
"w  c #563422",
"e  c #5C3621",
"r  c #573827",
"t  c #5E3921",
"y  c #53382A",
"u  c #5C3E2D",
"i  c #423531",
"p  c #493730",
"a  c #463A35",
"s  c #4A3830",
"d  c #433C3B",
"f  c #533C31",
"g  c #613721",
"h  c #643B23",
"j  c #6A3E26",
"k  c #693F28",
"l  c #4E423E",
"z  c #5B4132",
"x  c #57443C",
"c  c #5C463B",
"v  c #6C4026",
"b  c #66422D",
"n  c #6D4229",
"m  c #704227",
"M  c #73442A",
"N  c #79472C",
"B  c #77492F",
"V  c #7B4A2D",
"C  c #684B39",
"Z  c #734B34",
"A  c #7C4D32",
"S  c #2F3A45",
"D  c #333B44",
"F  c #383E45",
"G  c #333E49",
"H  c #423E40",
"J  c #36414D",
"K  c #464243",
"L  c #494546",
"P  c #45454B",
"I  c #4E4B4E",
"U  c #5B4B45",
"Y  c #58504E",
"T  c #434A53",
"R  c #4C4D51",
"E  c #414C58",
"W  c #45505B",
"Q  c #4B5058",
"!  c #565354",
"~  c #55555A",
"^  c #4E5661",
"/  c #535C66",
"(  c #595C63",
")  c #515C68",
"_  c #5F636A",
"`  c #5B6572",
"'  c #656B74",
"]  c #67727F",
"[  c #6A717B",
"{  c #814D2F",
"}  c #824E31",
"|  c #825033",
" . c #855032",
".. c #875133",
"X. c #835034",
"o. c #845134",
"O. c #855134",
"+. c #845235",
"@. c #865335",
"#. c #855233",
"$. c #8A5132",
"%. c #895234",
"&. c #895335",
"*. c #885236",
"=. c #8E5334",
"-. c #8B5435",
";. c #885437",
":. c #8B5536",
">. c #8D5536",
",. c #8B5535",
"<. c #8C5837",
"1. c #8B5238",
"2. c #8E5839",
"3. c #8F5838",
"4. c #8F593A",
"5. c #8E5939",
"6. c #915737",
"7. c #905535",
"8. c #945937",
"9. c #935938",
"0. c #90593A",
"q. c #91593B",
"w. c #92593B",
"e. c #915A3B",
"r. c #925B3B",
"t. c #965938",
"y. c #975A39",
"u. c #945A3A",
"i. c #955A3A",
"p. c #94593C",
"a. c #945B3A",
"s. c #9C5E3B",
"d. c #9C633D",
"f. c #A0643E",
"g. c #9F6740",
"h. c #A46740",
"j. c #A26A41",
"k. c #AB6F45",
"l. c #687380",
"z. c #6F7985",
"x. c #707A86",
"c. c #707A87",
"v. c #737E8B",
"b. c #737E8C",
"n. c #7B8592",
"m. c #7C8794",
"M. c #7C8794",
"N. c #8A95A2",
"B. c #8A95A2",
"V. c #8E99A6",
"C. c #949FAD",
"Z. c #949FAD",
/* pixels */
"- - - - - - - - - - - - - - - - - - - - - - - - -                                                                               ",
"- - - ; : ; - - - - - - - - - - - - - : < ; - - -                                                                               ",
"- - : 2 3 2 < - - - - - - - - - - - 2 4 t 3 : - -                                                                               ",
"- - < 3 h 4 2 - - : 1 2 2 2 < : - ; 3 h v e < - -                                                                               ",
"- - 1 4 h 4 2 - 1 g m N B B v e < ; 3 h v 4 < - -                                                                               ",
". . < e v g 2 - 3 m 1.p.0.0.| k 2 ; 3 h k 4 < - -                                                                               ",
"O O 9 u B k 3 ; 3 v %.0.0.2.} k 2 ; 3 h k 4 < - -                                                                               ",
"G G K c Z b w ; 3 v O.2.2.2.} k 2 ; 3 h k 4 < - -                                                                               ",
"] ] _ ! l s 6 - 2 v O.2.0.0.X.k 2 ; 3 h v e < - -                                                                               ",
"C.C.v.) S # o > 2 v O.2.2.0.O.v 2 ; 3 h v e < - -                                                                               ",
"C.C.v.) S # o > 3 v O.0.0.t. .j 2 ; 3 h v e < - -                                                                               ",
"C.C.v.) S # o > 3 v ;.0.t.t.$.j 2 ; 3 h v e < - -                                                                               ",
"C.C.v.) S # o > 3 m ;.t.0.0. .j 2 ; 3 h v 4 < - -                                                                               ",
"C.C.v.) S # o > 3 m =.t.0.2.} k 2 ; 3 h k 4 < - -                                                                               ",
"C.C.v.) S # o > 3 m %.6.>.%.V h 2 ; 3 h v e < - -                                                                               ",
"C.C.v.) S # o > 2 v O.;.%.} N g < : 3 k v e < - -                                                                               ",
"l.l._ ! l p 6 - 2 k } } V M h 3 : - 8 y f 8 : - -                                                                               ",
"J J L c Z b w ; 2 h V V v 4 3 < - > o & = + X - -                                                                               ",
"# O 9 u M h 3 - < 4 k k 4 2 : , o @ K Q ^ P * o o                                                                               ",
". . < w h 5 3 - ; < 3 3 < ; > o # F / x.n.` T $ $                                                                               ",
"- - < 3 h 4 2 - ; < 3 3 < - . O $ J ` m.N.] W % %                                                                               ",
"- - < 3 h 4 2 - : 2 4 4 2 ; > O $ J ` m.N.] W % %                                                                               ",
"- - < 3 g 4 < - ; 2 3 3 3 3 w q a L ( [ z.( P # #                                                                               ",
"- - < 3 t 3 < - - - : 3 h B A Z Z C U R T H @ X X                                                                               ",
"- - : 3 t 3 < - - - - 2 v ;.2.O.V n z a * + , - -                                                                               ",
"- - < 3 t w < - - - - 2 m >.>.V g 3 w r r 8 : - -                                                                               ",
"- - < 3 h w 2 - - < 2 g m } { j 2 ; 2 g h 3 < - -                                                                               ",
"- - < 3 h 4 2 - 2 h N N m h 3 2 ; ; 2 g h 3 < - -                                                                               ",
"- - < 3 h g 3 2 g V t.=.v 2 - - - ; 3 g k 4 < - -                                                                               ",
"- - < 3 h h k j N %.s.>.v 2 - - - ; 3 h k 4 < - -                                                                               ",
"- - < 3 h m N } $.>.t. .v 3 ; - - ; 3 h k 4 < - -                                                                               ",
"- - < 4 h m N } V N j h h h e 2 ; ; 3 h k 4 < - -                                                                               ",
"- - 1 3 h m N } N g : < g M M g < ; 3 h k 4 < - -                                                                               ",
"- - < 3 h m V } N g : 3 n <.;.v 2 ; 3 g k 4 < - -                                                                               ",
"- - < 3 h m V  .N g < 4 V g.d.V 3 ; 3 g h 3 < - -                                                                               ",
"- - < 3 h h h h k M V | r.d.a.N 3 ; 3 g k 4 < - -                                                                               ",
"- - < 3 h 4 2 ; e | j.k.h.d.$.v 2 ; 3 h k 4 < - -                                                                               ",
"- - < 4 h 4 2 - 3 V d.f.a.<.V h 2 ; 3 h k 4 < - -                                                                               ",
"- - < 4 h 5 2 - 3 M 6.8.-.V M t < ; 3 h k 4 < - -                                                                               ",
"- - < 4 h 4 2 - 2 k { -. . .V h < ; 3 h k 4 < - -                                                                               ",
"- - < 3 h g 2 - 2 g N { O.2.X.k 2 ; 3 h k 4 < - -                                                                               ",
"- - < 4 h g 2 - 2 h V @.<.0.@.v 2 ; 3 h k 4 < - -                                                                               ",
"- - 1 4 h g 2 - 3 v O.0.a.s.;.v 2 ; 3 h k 4 < - -                                                                               ",
"- - < 4 h 4 2 - 3 m ;.0.@.A N h 3 2 3 4 e 3 < - -                                                                               ",
"- - < 3 h 4 2 - 3 M <.;.N 4 3 4 g g 3 2 : : ;                                                                                   ",
"- - < 3 h 4 2 - 3 M >. .k 2 : 3 h k 3 < - - -                                                                                   ",
"- - < 3 g e 2 - 3 v O.} h < : 3 h h 3 < - - -                                                                                   ",
"X X 7 r k g 2 - 2 g M v e 2 < 2 4 4 3 : - -                                                                                     ",
"& & a z Z k 3 - - < 2 3 3 3 2 2 < < : ; -                                                                                       ",
"E E I U C u w - - - - : 3 t t 3 : - - -                                                                                         ",
"b.b.' ~ H i 6 > - - - < e n n e < - - -                                                                                         ",
"C.C.v.) S # o > - - ; 2 g M M g < - -                                                                                           ",
"C.C.v.) S # o > ; < 2 3 3 3 3 2 < -                                                                                             ",
"C.C.v.) S # o > : 3 g e 2 ; - -                                                                                                 ",
"C.C.v.) S # o > 2 g B m e < - -                                                                                                 ",
"C.C.v.) S & o > 2 k A V h < - -                                                                                                 ",
"C.C.v.) S & 9 2 3 4 g e 3 < - -                                                                                                 ",
"V.V.x./ D * 0 e 3 1 - - -                                                                                                       ",
"` ` ( Y x z b v h 3 ; - -                                                                                                       ",
"% % d c A A A V n 4 : - -                                                                                                       ",
"O O 9 r n n h g 4 3 : - -                                                                                                       ",
"- - : 3 w 3 < - - -                                                                                                             ",
"- - - < 2 < : - - -                                                                                                             ",
"- - - - - - -                                                                                                                   "
};
