/* XPM */
static char *_6394308e6d94b12eb3662aff8c77585PTpwNWZL97hWEcgs[] = {
/* columns rows colors chars-per-pixel */
"64 64 122 2 ",
"   c #3D271D",
".  c #3B2820",
"X  c #362B29",
"o  c #29343F",
"O  c #432313",
"+  c #492716",
"@  c #4B2917",
"#  c #4D2A18",
"$  c #522E1C",
"%  c #56301C",
"&  c #59331E",
"*  c #5E3620",
"=  c #5F3824",
"-  c #603721",
";  c #603822",
":  c #683F25",
">  c #6A3F28",
",  c #5B4436",
"<  c #5C4539",
"1  c #6A4026",
"2  c #6D422D",
"3  c #73452B",
"4  c #79472C",
"5  c #76492E",
"6  c #7C4D2F",
"7  c #654432",
"8  c #6E4732",
"9  c #6B4936",
"0  c #61473A",
"q  c #64493B",
"w  c #764A32",
"e  c #7D4D32",
"r  c #714F3D",
"t  c #7F5031",
"y  c #785039",
"u  c #37424D",
"i  c #5A4A43",
"p  c #404B56",
"a  c #545F6C",
"s  c #814D2F",
"d  c #824E34",
"f  c #865133",
"g  c #845433",
"h  c #855433",
"j  c #805034",
"k  c #835335",
"l  c #845134",
"z  c #845235",
"x  c #875234",
"c  c #875334",
"v  c #865436",
"b  c #875436",
"n  c #865437",
"m  c #875437",
"M  c #825132",
"N  c #885234",
"B  c #885335",
"V  c #895335",
"C  c #8A5335",
"Z  c #895435",
"A  c #885535",
"S  c #8A5435",
"D  c #885436",
"F  c #895436",
"G  c #8A5436",
"H  c #8A5536",
"J  c #8B5536",
"K  c #8B5537",
"L  c #895737",
"P  c #8F5735",
"I  c #8C5536",
"U  c #8D5536",
"Y  c #8C5537",
"T  c #8D5537",
"R  c #8C5636",
"E  c #8C5637",
"W  c #8D5637",
"Q  c #8E5737",
"!  c #8B5536",
"~  c #885837",
"^  c #8F5A37",
"/  c #805239",
"(  c #8B563A",
")  c #8C5638",
"_  c #8D5738",
"`  c #8E5738",
"'  c #8C5738",
"]  c #8C5839",
"[  c #8D5939",
"{  c #8E5839",
"}  c #8E583A",
"|  c #8F593A",
" . c #8E5839",
".. c #905836",
"X. c #905837",
"o. c #935B37",
"O. c #93573A",
"+. c #935B38",
"@. c #92593B",
"#. c #905A3B",
"$. c #915B3B",
"%. c #95583A",
"&. c #945A3A",
"*. c #975B3A",
"=. c #975E3A",
"-. c #915B3C",
";. c #96593D",
":. c #955E3D",
">. c #965F3E",
",. c #935C3A",
"<. c #995B39",
"1. c #985C3B",
"2. c #9B5C3A",
"3. c #985A3C",
"4. c #985F3B",
"5. c #9F6846",
"6. c #AF744F",
"7. c #AF754F",
"8. c #B17650",
"9. c #8E99A6",
"0. c #949FAD",
"q. c #949FAD",
/* pixels */
"O O O O O O O O O O O O O O O O O O O O O O O O O O O O O O O O O O O O O O O O O O O O O O O O O O O O O O O O O O O O O O O O ",
"O O O % * * & % % & & & & $ $ $ * * * - - - ; ; ; ; ; * & & & % % % % $ $ $ $ * ; ; - - - * * * $ $ $ & & & & % % & * * % O O O ",
"O O O 4 V V e w w e t t t e e e f f f E _ _ _ _ _ _ _ _ _ _ _ _ _ _ _ _ _ _ _ _ _ _ _ _ E f f f e e e t t t e w w e V V 4 O O O ",
"O O O 4 V V e w w e M M M M M M f f f E _ _ _ _ _ _ _ _ _ _ _ _ _ _ _ _ _ _ _ _ _ _ _ _ E f f f M M M M M M e w w e V V 4 O O O ",
"O O O 6 E E e 5 5 M S S S S S S V S S E E E E E E E E E E E E E E E E E E E E E E E E E E S S V S S S S S S M 5 5 e E E 6 O O O ",
"      e E E d 4 4 e f f f f f f d d d 6 6 6 6 6 6 6 6 6 6 6 6 6 6 6 6 6 6 6 6 6 6 6 6 6 6 d d d f f f f f f e 4 4 d E E e       ",
"o o o y _ _ f 6 6 : O O O O O O O O O O O O O O O O O O O O O O O O O O O O O O O O O O O O O O O O O O O O : 6 6 f _ _ y o o o ",
"u u u r / / t 6 6 : O O O $ $ $ $ $ $ $ $ $ $ $ $ $ $ $ $ $ $ $ $ $ $ $ $ $ $ $ $ $ $ $ $ $ $ $ $ $ $ O O O : 6 6 t / / r u u u ",
"0.0.0.p o o , t t 1 O O % 8.8.8.8.8.8.8.8.8.8.8.8.8.8.8.8.8.8.8.8.8.8.8.8.8.8.8.8.8.8.8.8.8.8.8.8.8.8.% O O 1 t t , o o p 0.0.0.",
"0.0.0.p o o , t t 1 O O % 6.6.6.6.6.6.6.6.6.6.6.6.6.6.6.6.6.6.6.6.6.6.6.6.6.6.6.6.6.6.6.6.6.6.6.6.6.6.% O O 1 t t , o o p 0.0.0.",
"0.0.0.p o o 0 S S 3 O O # s s s E _ _ S S S S S S S S S S S S S S S S S S S S S S S S S S _ _ E s s s # O O 3 S S 0 o o p 0.0.0.",
"0.0.0.p o o 0 S S 3 O O # s s s E _ _ S S S S S S S S S S S S S S S S S S S S S S S S S S _ _ E s s s # O O 3 S S 0 o o p 0.0.0.",
"0.0.0.p o o q +.+.3 O O # V V V | +.+.| | | | | | | | | | | | | | | | | | | | | | | | | | +.+.| V V V # O O 3 +.+.q o o p 0.0.0.",
"0.0.0.p o o q +.+.3 O O # V V V +.+.+.| | | | | | | | | | | | | | | | | | | | | | | | | | +.+.+.V V V # O O 3 +.+.q o o p 0.0.0.",
"0.0.0.p o o q +.+.3 O O # V V V V V V E E E E E E E E E E E E E E E E E E E E E E E E E E V V V V V V # O O 3 +.+.q o o p 0.0.0.",
"0.0.0.p o o q o.o.3 O O # V V V V V V E E E E E E E E E E E E E E E E E E E E E E E E E E V V V V V V # O O 3 o.o.q o o p 0.0.0.",
"p p p < 7 7 j $.+.3 O O # e e e x x V _ _ _ _ _ _ _ _ _ _ _ _ _ _ _ _ _ _ _ _ _ _ _ _ _ _ V V x e e e # O O 3 +.+.t 7 7 < p p p ",
"o o o 7 5 5 m -.-.3 O O @ w w w x x V _ _ _ _ _ _ _ _ _ _ _ _ _ _ _ _ _ _ _ _ _ _ _ _ _ _ V V x w w w @ O O 3 -.-.m 5 5 7 o o o ",
". . . 2 6 6 E 2.2.4 O O @ 5 4 4 j j j S S S S S S S S S S S S S S S S S S S S S S S S S S j j j 5 5 5 @ O O 4 2.2.E 6 6 2 . . . ",
"O O O 3 6 6 E 2.2.4 O O @ 5 5 5 e e e V V V V V V V V V V V V V V V V V V V V V V V V V V e e e 5 5 5 @ O O 4 2.2.E 6 6 3 O O O ",
"O O O 3 6 6 E 3.3.4 O O @ 4 4 4 d M M S S S S S S S S S S S S S S S S S S S S S S S S S S M M d 4 4 4 @ O O 4 3.3.E 6 6 3 O O O ",
"O O O 3 6 6 E ;.;.4 O O # e e e f f f S S S S S S S S S S S S S S S S S S S S S S S S S S f f f e e e # O O 4 ;.;.E 6 6 3 O O O ",
"O O O 2 5 5 m +.+.3 O O # w w w V S S E E E E E E E E E E E E E E E E E E E E E E E E E E S S V w w w # O O 3 +.+.m 5 5 2 O O O ",
"O O O 1 5 5 j | | 3 O O # w w w _ _ _ _ _ _ _ _ _ _ _ _ _ _ _ _ _ _ _ _ _ _ _ _ _ _ _ _ _ _ _ _ w w w # O O 3 | | j 5 5 1 O O O ",
"O O O 2 5 5 S *.*.3 O O @ w w w e e e d e e e e e e e e e e e e e e e e e e e e e e d d e e e e w w w @ O O 3 *.*.S 5 5 2 O O O ",
"O O O 3 6 6 E 2.2.4 O O @ 2 2 2 2 2 2 2 2 2 2 2 2 2 2 2 2 2 2 2 2 2 2 2 2 2 2 2 2 2 2 2 2 2 2 2 2 2 2 @ O O 4 2.2.E 6 6 3 O O O ",
"O O O 3 M M ^ *.*.4 O O O = = = = = = = = = = = = = = = ; ; = = = = = = = = ; ; = = = = = = = = = ; ; + O O 4 *.*.E M M 3 O O O ",
"O O O 5 ~ ~ | +.+.3 O O O O O O O O O O O O O O O O O O O O O O O O O O O O O O O O O O O O O O O O O O O O 3 +.+.| ~ ~ 5 O O O ",
"O O O 5 ~ S | | | 4 $ $ $ $ $ $ % % % % % % % % % % % % % % % % % % % % % % % % % % % % % % % % $ $ $ $ $ $ 4 | | | S S 5 O O O ",
"O O O 6 S S E _ _ m e e e d d d +.-.-.E S S S S S S S S S S S S S S S S S S S S S S S S S -.-.+.d d d e e e m _ _ E S S 6 O O O ",
"O O O 6 S S E _ _ S e e e d d d +.-.-.S S S S S S S S S S S S S S S S S S S S S S S S S S -.-.+.d d d e e e S _ _ E S S 6 O O O ",
"O O O e _ _ E E E S f f f e e e | | | S S S S S S S S S S S S S S S S S S S S S S S S S S | +.| e e e f f f S E E E _ _ e O O O ",
"O O O e _ _ _ E E S f f f e e e | | | S S S S S S S S S S S S S S S S S S S S S S S S S S | | | e e e f f f S E E _ _ _ e O O O ",
"O O O e _ _ | | | _ S S V d d d S S S f f f f f f f f f f f f f f f f f f f f f f f f f f S S S d d d V S S _ | | | _ _ e O O O ",
"O O O e _ _ | | | _ S S V d d d S S S f f f f f f f f f f f f f f f f f f f f f f f f f f S S S d d d V S S _ | | | _ _ e O O O ",
"O O O 6 S S o.o.o.o.S S S V V V V V V _ _ _ _ _ _ _ _ _ _ _ _ _ _ _ _ _ _ _ _ _ _ _ _ _ _ V V V V V V S S S o.o.o.o.S S 6 O O O ",
"O O O 6 S S o.o.o.o.S S S V V V V V V _ _ _ _ _ _ _ _ _ _ _ _ _ _ _ _ _ _ _ _ _ _ _ _ _ _ V V V V V V S S S o.o.o.o.S S 6 O O O ",
"O O O 5 h h ^ *.*.4 + + + + + + + + + + + + + + + + + + + + + + + + + + + + + + + + + + + + + + + + + + + + 4 *.*.^ h h 5 O O O ",
"O O O 5 h h ^ *.*.4 O O O O O O O O O O O O O O O O O O O O O O O O O O O O O O O O O O O O O O O O O O O O 4 *.*.^ h h 5 O O O ",
"O O O 5 M M o.<.<.4 O O $ 5.5.5.5.5.5.5.5.5.5.5.5.5.5.5.5.5.5.5.5.5.5.5.5.5.5.5.5.5.5.5.5.5.5.5.5.5.5.$ O O 4 <.<.o.M M 5 O O O ",
"O O O 5 M M o.<.<.4 O O % 8.8.8.8.8.8.8.8.8.8.8.8.8.8.8.8.8.8.8.8.8.8.8.8.8.8.8.8.8.8.8.8.8.8.8.8.8.8.% O O 4 <.<.o.M M 5 O O O ",
"O O O 5 M M E *.*.3 O O # ( ( ( >.>.>.>.>.>.>.>.>.>.>.>.>.>.>.>.>.>.>.>.>.>.>.>.>.>.>.>.>.>.>.>.( ( ( # O O 3 *.*.E M M 5 O O O ",
"O O O 5 M M E O.O.3 O O # e e e S E E _ _ _ _ _ _ _ _ _ _ _ _ _ _ _ _ _ _ _ _ _ _ _ _ _ _ E E S e e e # O O 3 O.O.E M M 5 O O O ",
"O O O 5 M M S E E 3 O O # d d d S S S V V V V V V V V V V V V V V V V V V V V V V V V V V S S S d d d # O O 3 E E S M M 5 O O O ",
"O O O 3 M M x S S 3 O O # d d d S S S f f f f f f f f f f f f f f f f f f f f f f f f f f S S S d d d # O O 3 S S x M M 3 O O O ",
"O O O 3 t t x V V 1 O O # d d d S S S M M M M M M M M M M M M M M M M M M M M M M M M M M S S S d d d # O O 1 V V x t t 3 O O O ",
"O O O 3 e e M f f 1 O O # d d d S S S e 6 6 6 6 6 6 6 6 6 6 6 6 6 6 6 6 6 6 6 6 6 6 6 6 e S S S d d d # O O 1 f f M e e 3 O O O ",
"X X X 8 e e x S S 3 O O # d d d f f f M M M M M M f f f M M M M M M M M M M M M M M M M M f f f d d d # O O 3 S S x e e 8 X X X ",
"o o o 9 e e m _ _ 3 O O # d d d M M M V V V V V V V V V V V V V V V V V V V V V V V V V V M M M d d d # O O 3 _ _ m e e 9 o o o ",
"a a a i < < w S S 3 O O # d d d e e e S E E E E S E E E S S S S S S S S S S S S S S S S S e e e d d d # O O 3 S S w < < i a a a ",
"0.0.0.p o o 0 V V 1 O O # e e e w w w E _ _ _ _ _ _ _ _ _ _ _ _ _ _ _ _ _ _ _ _ _ _ _ _ E w w w e e e # O O 1 V V 0 o o p 0.0.0.",
"0.0.0.p o o 0 S S 3 O O # e e e w w w _ | | | | | | | | | | | | | | | | | | | | | | | | _ w w w e e e # O O 3 S S 0 o o p 0.0.0.",
"0.0.0.p o o q _ _ 3 O O # d d d w w w | | | | | | | | | | | | | | | | | | | | | | | | | | w w w d d d # O O 3 _ _ q o o p 0.0.0.",
"0.0.0.p o o q _ _ 3 O O # x x x e w e | | | | | | | | | | | | | | | | | | | | | | | | | | e e e x x x # O O 3 _ _ q o o p 0.0.0.",
"0.0.0.p o o 0 S S 3 O O # V V V M M M | +.+.+.+.+.+.+.+.+.+.+.+.+.| +.+.+.+.+.+.+.+.+.+.| M M M V V V # O O 3 S S 0 o o p 0.0.0.",
"0.0.0.p o o 0 S S 3 O O # x x x e e e ( ( ( ( ( ( ( ( ( ( ( ( ( ( ( ( ( ( ( ( ( _ ( ( ( ( e e e x x x # O O 3 S S 0 o o p 0.0.0.",
"0.0.0.p o o q _ _ 3 O O @ 2 2 2 2 2 2 2 2 2 2 2 2 2 2 2 2 2 2 2 2 2 2 2 2 2 2 2 2 2 2 2 2 2 2 2 2 2 2 @ O O 3 _ _ q o o p 0.0.0.",
"9.9.9.p o o q _ _ 3 O O @ 2 2 2 2 2 2 2 2 2 2 2 2 2 2 2 2 2 2 2 2 2 2 2 2 2 2 2 2 2 2 2 2 2 2 2 2 2 2 @ O O 3 _ _ q o o p 9.9.9.",
"o o o 7 3 3 d S S 3 O O O O O O O O O O O O O O O O O O O O O O O O O O O O O O O O O O O O O O O O O O O O 3 S S d 3 3 7 o o o ",
"o o o 7 3 3 d S S 3 O O O O O O O O O O O O O O O O O O O O O O O O O O O O O O O O O O O O O O O O O O O O 3 S S d 3 3 7 o o o ",
"O O O 1 5 5 M E E S f f d 5 5 5 6 6 6 *.*.*.*.*.*.*.*.*.*.*.*.*.*.*.*.*.*.*.*.*.*.*.*.*.$.6 t 6 5 5 5 d f f S E E M 5 5 1 O O O ",
"O O O 1 5 5 M E E S f f f 5 5 5 t t t *.2.2.2.4.2.2.2.2.2.*.4.4.2.2.2.2.2.*.4.4.2.2.2.2.*.t t t 5 5 5 f f f S E E M 5 5 1 O O O ",
"O O O 1 3 3 e M M M M M e 5 5 5 t t t E | | | | | | | | | | | | | | | | | | | | | | | | E t t t 5 5 5 e M M M M M e 3 3 1 O O O ",
"O O O > 3 3 e M M M t t e 5 5 5 t t t E _ _ _ _ _ _ _ _ _ _ _ | _ _ _ _ _ _ _ | _ _ _ _ E t t t 5 5 5 e t t M M M e 3 3 > O O O "
};
